<?xml version="1.0" encoding="UTF-8"?>
<svg version="1.1" xmlns="http://www.w3.org/2000/svg" width="1600" height="896">
<path d="M0 0 C528 0 1056 0 1600 0 C1600 295.68 1600 591.36 1600 896 C1072 896 544 896 0 896 C0 600.32 0 304.64 0 0 Z " fill="#1C232A" transform="translate(0,0)"/>
<path d="M0 0 C5.21460601 4.11061284 9.24193418 8.79695233 13 14.25 C13.74056641 15.31154297 13.74056641 15.31154297 14.49609375 16.39453125 C20.92176385 26.67178995 23.14854045 41.37960022 20.57666016 53.19482422 C18.56555142 60.80043784 15.73807845 67.91870804 11 74.25 C10.45601562 74.99378906 9.91203125 75.73757813 9.3515625 76.50390625 C7.92060059 78.43536892 6.47117916 80.34909497 5 82.25 C5.48210937 82.78109375 5.96421875 83.3121875 6.4609375 83.859375 C7.09257813 84.56578125 7.72421875 85.2721875 8.375 86 C9.00148438 86.69609375 9.62796875 87.3921875 10.2734375 88.109375 C12 90.25 12 90.25 14 94.25 C10.7 97.22 7.4 100.19 4 103.25 C-0.53287116 99.51704728 -4.37382288 95.86513452 -8 91.25 C-10.45507472 91.65917912 -12.59097736 92.03843656 -14.8125 93.1875 C-26.18738857 98.71244588 -39.82076775 97.31708917 -51.46826172 93.45092773 C-56.94078031 91.46954566 -61.47827053 88.87324327 -66 85.25 C-67.010625 84.528125 -68.02125 83.80625 -69.0625 83.0625 C-76.30524448 76.76796998 -81.09765869 68.27780901 -84 59.25 C-84.4125 58.05375 -84.825 56.8575 -85.25 55.625 C-88.29426042 41.89815302 -85.95542735 27.24272988 -78.625 15.3125 C-77.4433414 13.60621496 -76.2370233 11.91658304 -75 10.25 C-74.52691406 9.59386719 -74.05382812 8.93773437 -73.56640625 8.26171875 C-55.86438934 -14.35473912 -22.39574318 -15.13558468 0 0 Z " fill="#F5E8CE" transform="translate(961,406.75)"/>
<path d="M0 0 C10.34465307 8.61003137 19.24084768 21.44132053 20.5625 35.1328125 C21.77762719 52.73317045 17.66762725 66.67654507 6.125 80.3203125 C5.279375 81.2484375 4.43375 82.1765625 3.5625 83.1328125 C5.0475 83.6278125 5.0475 83.6278125 6.5625 84.1328125 C9.62903539 86.8488867 12.3687223 89.54383536 12.875 93.6953125 C10.9311599 97.30530126 8.17117426 100.14542667 4.5625 102.1328125 C1.42214337 102.10109173 0.47583698 101.04887564 -1.796875 98.84765625 C-2.58578125 97.93113281 -3.3746875 97.01460938 -4.1875 96.0703125 C-4.98671875 95.15121094 -5.7859375 94.23210937 -6.609375 93.28515625 C-7.21265625 92.57488281 -7.8159375 91.86460937 -8.4375 91.1328125 C-9.01757812 91.33777344 -9.59765625 91.54273438 -10.1953125 91.75390625 C-10.97648438 92.02332031 -11.75765625 92.29273438 -12.5625 92.5703125 C-13.32820312 92.83714844 -14.09390625 93.10398437 -14.8828125 93.37890625 C-28.05387369 97.26577905 -44.93238806 96.93747764 -57.4375 91.1328125 C-60.65837974 89.36876144 -63.5524044 87.4000782 -66.4375 85.1328125 C-67.06269531 84.6584375 -67.68789063 84.1840625 -68.33203125 83.6953125 C-78.18015794 75.79964666 -84.97536423 63.71989432 -86.4375 51.1328125 C-87.5585578 36.74353897 -85.91409342 24.03667952 -77.0625 12.1328125 C-75.88106689 10.77558628 -74.67262663 9.44136492 -73.4375 8.1328125 C-72.82003906 7.43800781 -72.20257813 6.74320312 -71.56640625 6.02734375 C-52.79896614 -14.09950852 -22.11612872 -15.2048385 0 0 Z " fill="#F5E8CE" transform="translate(545.4375,406.8671875)"/>
<path d="M0 0 C0.67546875 0.3609375 1.3509375 0.721875 2.046875 1.09375 C9.02091945 5.41395452 14.35394632 13.49790672 16.55859375 21.33203125 C18.68584976 34.18969371 16.85363786 44.70541477 9.6875 55.75 C9.130625 56.4925 8.57375 57.235 8 58 C4.33213607 56.49650623 2.31089607 54.36271208 -0.25 51.375 C-0.95640625 50.55773437 -1.6628125 49.74046875 -2.390625 48.8984375 C-2.92171875 48.27195312 -3.4528125 47.64546875 -4 47 C-6.86293173 48.30354764 -8.32807153 49.32807153 -10.625 51.625 C-11.40875 52.40875 -12.1925 53.1925 -13 54 C-13.66 54 -14.32 54 -15 54 C-15 54.99 -15 55.98 -15 57 C-14.360625 57.268125 -13.72125 57.53625 -13.0625 57.8125 C-11 59 -11 59 -10 62 C-7.99983534 63.20882096 -7.99983534 63.20882096 -6 64 C-6 64.99 -6 65.98 -6 67 C-14.83845009 70.36128935 -24.82862625 70.15386902 -33.75390625 67.046875 C-44.05723049 62.24462996 -51.80192564 53.21290408 -55.8125 42.6875 C-58.7612208 32.77369731 -56.93182528 23.3974276 -53 14 C-47.98578708 5.15648903 -39.87680746 -1.40917371 -30.23046875 -4.58203125 C-19.44882668 -6.60240901 -9.60742959 -5.30471572 0 0 Z " fill="#23292C" transform="translate(532,418)"/>
<path d="M0 0 C6.89031384 5.53735748 12.35815157 13.58455774 13.8125 22.375 C15.03154545 35.34619145 12.78632921 45.74322772 4.8125 56.375 C0.48822724 54.57321968 -1.57788512 51.66728082 -4.40625 48.0546875 C-6.26447829 45.91762591 -6.26447829 45.91762591 -10.1875 46.375 C-11.9870678 47.5071754 -11.9870678 47.5071754 -13.5 49.125 C-14.03238281 49.63546875 -14.56476562 50.1459375 -15.11328125 50.671875 C-16.38750411 52.31958383 -16.38750411 52.31958383 -16.046875 54.3515625 C-15.05695136 56.68238272 -13.84810297 58.15061762 -12.125 60 C-9.1875 63.16558824 -9.1875 63.16558824 -9.1875 65.375 C-17.93073426 68.70007848 -27.9782355 68.59661491 -36.8125 65.47265625 C-47.22520659 60.66020469 -53.04208569 53.73428279 -57.5625 43.375 C-60.67075311 33.91797459 -61.05399912 23.46786859 -56.8215332 14.34301758 C-52.58748245 6.09879546 -52.58748245 6.09879546 -49.1875 3.375 C-48.5275 3.375 -47.8675 3.375 -47.1875 3.375 C-47.1875 2.715 -47.1875 2.055 -47.1875 1.375 C-33.47269167 -10.00537287 -14.54453085 -9.73322216 0 0 Z " fill="#222A2C" transform="translate(951.1875,419.625)"/>
<path d="M0 0 C9.23822283 6.29540185 14.09278745 13.87114981 16.8125 24.75 C16.8125 29.37 16.8125 33.99 16.8125 38.75 C-1.6675 38.75 -20.1475 38.75 -39.1875 38.75 C-36.22017467 47.65197598 -34.3335402 51.63665297 -26.1875 55.75 C-19.12199249 56.68700279 -11.98203154 56.70852854 -5.7421875 52.97265625 C-3.46376883 51.18083453 -1.78876908 49.15190362 -0.1875 46.75 C4.31047113 48.43673918 8.54136302 50.56673892 12.8125 52.75 C11.07258402 59.12969192 5.9938575 62.96525296 1.0625 67 C-8.3868704 72.08812252 -18.95104444 73.36505753 -29.3125 70.5625 C-40.74061586 66.63860579 -48.7246032 60.34682924 -54.1875 49.375 C-56.26892727 43.90422156 -56.64265687 38.78812678 -56.6875 33 C-56.69394531 32.20803223 -56.70039062 31.41606445 -56.70703125 30.60009766 C-56.49902413 21.03777046 -52.7133762 12.57525322 -46.1796875 5.609375 C-33.19281824 -6.6082372 -15.66599066 -9.11093123 0 0 Z " fill="#F5E7CE" transform="translate(714.1875,431.25)"/>
<path d="M0 0 C5.61 0 11.22 0 17 0 C17.46897705 1.205354 17.9379541 2.41070801 18.42114258 3.65258789 C20.16994344 8.14638219 21.92031212 12.63956446 23.67114258 17.13256836 C24.42710105 19.07315821 25.18264053 21.01391134 25.93774414 22.95483398 C27.02639047 25.75287752 28.11656776 28.55032048 29.20703125 31.34765625 C29.54152786 32.2083522 29.87602448 33.06904816 30.22065735 33.95582581 C31.65970455 37.64361771 33.12085167 41.30177924 34.73706055 44.91577148 C36 48 36 48 36 51 C36.66 51 37.32 51 38 51 C38.24000732 50.14776855 38.24000732 50.14776855 38.48486328 49.27832031 C40.60477248 41.96718329 43.19604837 34.87237141 45.875 27.75 C46.76622954 25.36350693 47.65686043 22.9767902 48.546875 20.58984375 C48.97033203 19.45530762 49.39378906 18.32077148 49.83007812 17.15185547 C51.94481614 11.45459593 53.97745081 5.73055603 56 0 C61.94 0 67.88 0 74 0 C72.68385087 3.9484474 71.36368954 7.64788822 69.74609375 11.453125 C66.77164329 18.52030594 63.9092055 25.63071684 61.0625 32.75 C60.79688263 33.41318237 60.53126526 34.07636475 60.25759888 34.75964355 C57.40164001 41.8936912 54.57499308 49.03159788 51.9375 56.25 C49.28032756 63.38820288 46.45402718 70.45357669 43.5625 77.5 C43.11962646 78.61149414 42.67675293 79.72298828 42.22045898 80.86816406 C39.05236075 88.48543683 35.29608706 96.29946428 27.4375 99.9375 C20.50513077 102.08023231 14.21809531 102.08802555 7 102 C7.33 97.05 7.66 92.1 8 87 C10.99479167 86.86979167 13.98958333 86.73958333 16.984375 86.609375 C20.61801436 85.87511627 21.73290239 84.88310186 24 82 C25.33803873 79.84912079 25.33803873 79.84912079 26.3125 77.5625 C26.65925781 76.82128906 27.00601563 76.08007812 27.36328125 75.31640625 C28.78278869 70.15218594 26.00860581 65.268181 24.0078125 60.55078125 C23.70572876 59.82852859 23.40364502 59.10627594 23.09240723 58.36213684 C22.44386471 56.81355651 21.7931415 55.26588796 21.14044189 53.71905518 C20.11836821 51.29678294 19.10225581 48.87208252 18.08740234 46.44677734 C14.954022 38.96801452 11.79418172 31.50109309 8.59375 24.05078125 C8.08827637 22.8702417 7.58280273 21.68970215 7.06201172 20.47338867 C6.12716024 18.29508625 5.18638758 16.11931225 4.23876953 13.9465332 C3.82224121 12.97675537 3.40571289 12.00697754 2.9765625 11.0078125 C2.61643066 10.17910645 2.25629883 9.35040039 1.88525391 8.49658203 C1 6 1 6 0 0 Z " fill="#F4E8CF" transform="translate(794,428)"/>
<path d="M0 0 C2 2 2 2 2.13525391 3.97119141 C2.08288574 4.75671387 2.03051758 5.54223633 1.9765625 6.3515625 C1.925 7.20234375 1.8734375 8.053125 1.8203125 8.9296875 C1.75585938 9.81914062 1.69140625 10.70859375 1.625 11.625 C1.53992188 12.97078125 1.53992188 12.97078125 1.453125 14.34375 C1.31146317 16.56311862 1.15693806 18.78165927 1 21 C5.62 21 10.24 21 15 21 C14.67 29.58 14.34 38.16 14 47 C8.72 47 3.44 47 -2 47 C-1.96068325 51.71136396 -1.96068325 51.71136396 -1.90991211 56.42260742 C-1.89458315 60.08425139 -2.12286659 63.44312041 -3 67 C-2.01 67.33 -1.02 67.66 0 68 C0.3701735 72.81225548 -0.66555345 76.36452171 -2.2734375 80.8125 C-3.12527347 83.18139956 -3.12527347 83.18139956 -3.5625 86.5 C-3.706875 87.325 -3.85125 88.15 -4 89 C-6.95664519 90.4783226 -9.74229737 90.06032783 -13 90 C-13.061875 88.948125 -13.12375 87.89625 -13.1875 86.8125 C-14.15853824 82.25608981 -15.18816319 80.65171257 -19 78 C-22.74360341 78.05728998 -22.74360341 78.05728998 -26 79 C-26.09087891 80.06541016 -26.09087891 80.06541016 -26.18359375 81.15234375 C-26.26738281 82.07144531 -26.35117187 82.99054688 -26.4375 83.9375 C-26.51871094 84.85402344 -26.59992187 85.77054688 -26.68359375 86.71484375 C-27 89 -27 89 -28 90 C-31.5 90.125 -31.5 90.125 -35 90 C-36 89 -36 89 -36.1875 86.0625 C-36 83 -36 83 -34 81 C-34 79.68 -34 78.36 -34 77 C-35.65 76.34 -37.3 75.68 -39 75 C-39.34629187 71.88337314 -39.34406148 70.46104238 -37.4375 67.90625 C-34.23699997 65.40329485 -31.76147755 65.19571973 -27.75 64.75 C-26.48671875 64.60046875 -25.2234375 64.4509375 -23.921875 64.296875 C-22.95765625 64.19890625 -21.9934375 64.1009375 -21 64 C-20.34 65.32 -19.68 66.64 -19 68 C-18.505 66.02 -18.505 66.02 -18 64 C-17.34 65.65 -16.68 67.3 -16 69 C-15.236875 68.34 -14.47375 67.68 -13.6875 67 C-11 65 -11 65 -8 65 C-8 64.34 -8 63.68 -8 63 C-21.86 63 -35.72 63 -50 63 C-50 52.44 -50 41.88 -50 31 C-52.31 31 -54.62 31 -57 31 C-57 30.67 -57 30.34 -57 30 C-55.7934375 29.95101563 -54.586875 29.90203125 -53.34375 29.8515625 C-51.72914694 29.77646468 -50.11456461 29.70091997 -48.5 29.625 C-47.70851563 29.5940625 -46.91703125 29.563125 -46.1015625 29.53125 C-38.29314419 29.14722943 -31.54495646 27.15570185 -24 25 C-20.7 28.63 -17.4 32.26 -14 36 C-10.35670091 35.08917523 -9.35769969 34.74887018 -6.75 32.4375 C-5.8425 31.633125 -4.935 30.82875 -4 30 C-4.44603873 24.94489444 -6.64700824 22.59833262 -10 19 C-10.66 18.67 -11.32 18.34 -12 18 C-10.55038946 14.8195112 -8.75253422 12.28002633 -6.5625 9.5625 C-4.12362586 6.4834214 -1.89415643 3.45404997 0 0 Z " fill="#51534E" transform="translate(561,472)"/>
<path d="M0 0 C5.28 0 10.56 0 16 0 C16.01401855 2.22484131 16.01401855 2.22484131 16.02832031 4.49462891 C16.0682495 10.00762758 16.1340176 15.52006996 16.20751953 21.03271484 C16.23571195 23.41675663 16.25693503 25.80089158 16.27099609 28.18505859 C16.29244869 31.61604452 16.33911364 35.04591224 16.390625 38.4765625 C16.39185364 39.53928375 16.39308228 40.602005 16.39434814 41.69692993 C16.51397069 47.76694955 16.94626872 51.37859571 21 56 C24.47440659 58.89533882 27.42208853 59.47681897 31.9453125 59.2890625 C37.30173348 58.53549757 41.70383574 56.27280552 45 52 C47.39549792 46.5166825 47.34443873 41.22964189 47.4140625 35.3515625 C47.43342865 34.33903412 47.4527948 33.32650574 47.4727478 32.28329468 C47.53230723 29.06394758 47.57883448 25.84456426 47.625 22.625 C47.66320151 20.43618272 47.7022545 18.24738012 47.7421875 16.05859375 C47.83798942 10.70584907 47.92210775 5.35303404 48 0 C53.61 0 59.22 0 65 0 C65 24.09 65 48.18 65 73 C59.72 73 54.44 73 49 73 C48.505 68.545 48.505 68.545 48 64 C47.484375 64.7425 46.96875 65.485 46.4375 66.25 C41.83479556 71.44279475 36.48012372 73.75542909 29.609375 74.23828125 C20.97012758 74.40442062 14.66641335 74.27833435 8.07421875 68.234375 C0.34262571 60.10259599 -0.43983148 52.21802122 -0.29296875 41.40625 C-0.28872391 40.21898315 -0.28447906 39.03171631 -0.28010559 37.80847168 C-0.26339339 34.0387446 -0.22575381 30.26956388 -0.1875 26.5 C-0.17244358 23.93490359 -0.15875685 21.36979874 -0.14648438 18.8046875 C-0.1135141 12.53624974 -0.06178237 6.26821732 0 0 Z " fill="#ECE0C7" transform="translate(580,428)"/>
<path d="M0 0 C5.28 0 10.56 0 16 0 C16.01401855 2.06495728 16.01401855 2.06495728 16.02832031 4.17163086 C16.06838353 9.31013594 16.13418789 14.44805257 16.20751953 19.58618164 C16.23563462 21.80420333 16.25689591 24.02232346 16.27099609 26.24047852 C16.2925566 29.44077606 16.33927507 32.63990187 16.390625 35.83984375 C16.39185364 36.82145981 16.39308228 37.80307587 16.39434814 38.81443787 C16.52809242 45.19212021 17.55018904 50.53439047 21 56 C25.32485131 59.24363848 29.72435197 59.73471307 35 59 C39.3202041 57.70393877 41.43892074 56.6823937 44.3125 53.1875 C47.78122168 46.63547016 48.32381021 41.06692211 48.4140625 33.7890625 C48.43342865 32.82092621 48.4527948 31.85278992 48.4727478 30.85531616 C48.5322833 27.7786323 48.5788247 24.70191049 48.625 21.625 C48.66320373 19.53253623 48.70225685 17.44008778 48.7421875 15.34765625 C48.83796345 10.23189604 48.92209042 5.11606224 49 0 C54.28 0 59.56 0 65 0 C65 24.09 65 48.18 65 73 C59.72 73 54.44 73 49 73 C48.505 69.04 48.505 69.04 48 65 C47.57589844 65.39832031 47.15179687 65.79664063 46.71484375 66.20703125 C46.12832031 66.73683594 45.54179688 67.26664062 44.9375 67.8125 C44.36902344 68.33457031 43.80054688 68.85664063 43.21484375 69.39453125 C37.84984082 73.28344871 32.59217175 74.53681357 26.0625 74.4375 C25.00699951 74.42505249 25.00699951 74.42505249 23.93017578 74.41235352 C17.28629644 74.19592295 13.12748354 72.9046054 8.30078125 68.421875 C2.57984744 62.27152485 -0.13384881 55.14570782 -0.11352539 46.77246094 C-0.11344986 45.73168396 -0.11337433 44.69090698 -0.11329651 43.61859131 C-0.10813522 42.50179993 -0.10297394 41.38500854 -0.09765625 40.234375 C-0.0962413 39.08584045 -0.09482635 37.93730591 -0.09336853 36.75396729 C-0.08777143 33.08595169 -0.07521944 29.41799715 -0.0625 25.75 C-0.05748463 23.26302171 -0.05292178 20.77604247 -0.04882812 18.2890625 C-0.03780295 12.19268481 -0.02054027 6.09635276 0 0 Z " fill="#F3E7CD" transform="translate(995,428)"/>
<path d="M0 0 C13.86 0 27.72 0 42 0 C42 6.6 42 13.2 42 20 C39.56625 20.4125 37.1325 20.825 34.625 21.25 C23.63633026 23.26671796 15.47589014 26.53615644 7 34 C6.3709375 34.5465625 5.741875 35.093125 5.09375 35.65625 C-3.73439104 43.86487237 -9.70180433 55.38242248 -10.3125 67.484375 C-10.52824274 77.15123303 -9.7171695 85.35301681 -5.875 94.375 C-4 98.79562044 -4 98.79562044 -4 101 C-12.91 101 -21.82 101 -31 101 C-31 80.21 -31 59.42 -31 38 C-20.77 38 -10.54 38 0 38 C0 25.46 0 12.92 0 0 Z " fill="#7C7B6E" transform="translate(470,377)"/>
<path d="M0 0 C13.86 0 27.72 0 42 0 C42 17.49 42 34.98 42 53 C28.14 53 14.28 53 0 53 C0 35.51 0 18.02 0 0 Z " fill="#DBD1BB" transform="translate(392,356)"/>
<path d="M0 0 C0 20.79 0 41.58 0 63 C-7.92 63.33 -15.84 63.66 -24 64 C-31.81840956 56.18159044 -36.9459955 48.03821991 -37.4375 36.75 C-37.07575387 25.53586997 -33.16526942 16.22329549 -25.33984375 8.32421875 C-19.22856087 2.71408891 -8.47673342 -4.23836671 0 0 Z " fill="#7A786C" transform="translate(512,414)"/>
<path d="M0 0 C5.28 0 10.56 0 16 0 C16 34.98 16 69.96 16 106 C10.72 106 5.44 106 0 106 C0 71.02 0 36.04 0 0 Z " fill="#F0E4CE" transform="translate(1142,395)"/>
<path d="M0 0 C5.28 0 10.56 0 16 0 C16 34.98 16 69.96 16 106 C10.72 106 5.44 106 0 106 C0 71.02 0 36.04 0 0 Z " fill="#F3E7CF" transform="translate(1110,395)"/>
<path d="M0 0 C0 5.28 0 10.56 0 16 C-7.1875 16.25 -7.1875 16.25 -9.42260742 16.29785156 C-14.23019617 16.54456105 -16.50291588 17.8033966 -20 21 C-20.66 21 -21.32 21 -22 21 C-22.309375 21.94875 -22.61875 22.8975 -22.9375 23.875 C-24 27 -24 27 -25 29 C-25.11767472 30.4494793 -25.17689268 31.90393996 -25.20532227 33.35791016 C-25.22526749 34.25869293 -25.24521271 35.15947571 -25.26576233 36.08755493 C-25.29083107 37.54855118 -25.29083107 37.54855118 -25.31640625 39.0390625 C-25.33718735 40.03505463 -25.35796844 41.03104675 -25.37937927 42.05722046 C-25.44489042 45.24640854 -25.50376704 48.43568058 -25.5625 51.625 C-25.60568373 53.78386293 -25.64929797 55.9427173 -25.69335938 58.1015625 C-25.80057342 63.4009551 -25.90183648 68.70043234 -26 74 C-31.28 74 -36.56 74 -42 74 C-42 49.91 -42 25.82 -42 1 C-37.05 1 -32.1 1 -27 1 C-26.67 4.3 -26.34 7.6 -26 11 C-24.453125 9.1128125 -24.453125 9.1128125 -22.875 7.1875 C-15.89261848 -0.63997135 -10.16954417 -0.31131258 0 0 Z " fill="#F3E6CE" transform="translate(786,427)"/>
<path d="M0 0 C5.61 0 11.22 0 17 0 C17 24.09 17 48.18 17 73 C11.39 73 5.78 73 0 73 C0 48.91 0 24.82 0 0 Z " fill="#EBDFC7" transform="translate(1076,428)"/>
<path d="M0 0 C2.85534241 1.93445104 5.55171349 3.76807035 7.625 6.5625 C7.375 8.8125 7.375 8.8125 6.625 10.5625 C5.944375 9.3559375 5.944375 9.3559375 5.25 8.125 C3.87774335 5.47393428 3.87774335 5.47393428 1.625 4.5625 C1.625 5.5525 1.625 6.5425 1.625 7.5625 C-0.355 8.5525 -0.355 8.5525 -2.375 9.5625 C-2.6956035 14.90589164 -1.87039095 17.88364197 0.625 22.5625 C0.625 23.8825 0.625 25.2025 0.625 26.5625 C-12.905 26.5625 -26.435 26.5625 -40.375 26.5625 C-40.375 23.5925 -40.375 20.6225 -40.375 17.5625 C-40.705 17.2325 -41.035 16.9025 -41.375 16.5625 C-41.41563832 14.89632885 -41.417721 13.22861905 -41.375 11.5625 C-40.385 11.2325 -39.395 10.9025 -38.375 10.5625 C-38.705 8.9125 -39.035 7.2625 -39.375 5.5625 C-40.365 5.5625 -41.355 5.5625 -42.375 5.5625 C-43.035 7.2125 -43.695 8.8625 -44.375 10.5625 C-45.035 10.2325 -45.695 9.9025 -46.375 9.5625 C-46.375 5.5625 -46.375 5.5625 -45.16015625 4 C-31.97950765 -6.99881788 -14.96891751 -8.94820899 0 0 Z " fill="#F4E8CD" transform="translate(714.375,431.4375)"/>
<path d="M0 0 C13.86 0 27.72 0 42 0 C42 6.6 42 13.2 42 20 C39.56625 20.4125 37.1325 20.825 34.625 21.25 C22.85611019 23.40990944 11.9211498 26.99877657 4.7265625 37.234375 C2.33254245 39.65487757 1.06205341 39.99290128 -2.38476562 40.38720703 C-6.57355886 40.36615008 -10.69503797 40.16055537 -14.875 39.875 C-19.86625 39.58625 -24.8575 39.2975 -30 39 C-30 59.13 -30 79.26 -30 100 C-21.42 100 -12.84 100 -4 100 C-4 100.33 -4 100.66 -4 101 C-12.91 101 -21.82 101 -31 101 C-31 80.21 -31 59.42 -31 38 C-20.77 38 -10.54 38 0 38 C0 25.46 0 12.92 0 0 Z " fill="#55554F" transform="translate(470,377)"/>
<path d="M0 0 C4.95 0 9.9 0 15 0 C15 23.76 15 47.52 15 72 C10.38 72 5.76 72 1 72 C1 68.7 1 65.4 1 62 C-0.32 61.34 -1.64 60.68 -3 60 C-2.68950274 58.56206608 -2.3765224 57.1246682 -2.0625 55.6875 C-1.88847656 54.88699219 -1.71445312 54.08648437 -1.53515625 53.26171875 C-1 51 -1 51 0 48 C0.08705429 46.41966808 0.11767952 44.83589622 0.11352539 43.25317383 C0.11344986 42.29240433 0.11337433 41.33163483 0.11329651 40.3417511 C0.10813522 39.30729355 0.10297394 38.272836 0.09765625 37.20703125 C0.0962413 36.14586594 0.09482635 35.08470062 0.09336853 33.99137878 C0.08776606 30.59839065 0.07521314 27.20546823 0.0625 23.8125 C0.05748532 21.51367283 0.05292236 19.21484462 0.04882812 16.91601562 C0.03779583 11.27731838 0.02052952 5.63867034 0 0 Z " fill="#F8EBD1" transform="translate(629,428)"/>
<path d="M0 0 C7.59 0 15.18 0 23 0 C23 9.57 23 19.14 23 29 C15.41 29 7.82 29 0 29 C0 19.43 0 9.86 0 0 Z " fill="#CFC8B5" transform="translate(548,366)"/>
<path d="M0 0 C0.33 0.99 0.66 1.98 1 3 C1.33 1.68 1.66 0.36 2 -1 C2.66 0.65 3.32 2.3 4 4 C4.391875 3.51144531 4.78375 3.02289062 5.1875 2.51953125 C7.56386617 0.52727599 8.93603854 0.62822694 12 0.6875 C12.86625 0.69136719 13.7325 0.69523438 14.625 0.69921875 C17 1 17 1 20 3 C20.68948546 7.71148399 19.3031176 11.4511887 17.7265625 15.8125 C16.87472653 18.18139956 16.87472653 18.18139956 16.4375 21.5 C16.293125 22.325 16.14875 23.15 16 24 C13.04335481 25.4783226 10.25770263 25.06032783 7 25 C6.938125 23.948125 6.87625 22.89625 6.8125 21.8125 C5.84146176 17.25608981 4.81183681 15.65171257 1 13 C-2.74360341 13.05728998 -2.74360341 13.05728998 -6 14 C-6.06058594 14.71027344 -6.12117187 15.42054688 -6.18359375 16.15234375 C-6.26738281 17.07144531 -6.35117187 17.99054687 -6.4375 18.9375 C-6.51871094 19.85402344 -6.59992187 20.77054688 -6.68359375 21.71484375 C-7 24 -7 24 -8 25 C-11.5 25.125 -11.5 25.125 -15 25 C-16 24 -16 24 -16.1875 21.0625 C-16 18 -16 18 -14 16 C-14 14.68 -14 13.36 -14 12 C-16.475 11.01 -16.475 11.01 -19 10 C-19.35159416 6.83565253 -19.36215365 5.46241575 -17.36328125 2.91015625 C-14.50964197 0.60366103 -12.54753845 0.20194166 -8.9375 -0.3125 C-7.37322266 -0.55419922 -7.37322266 -0.55419922 -5.77734375 -0.80078125 C-3 -1 -3 -1 0 0 Z " fill="#2B2F2E" transform="translate(541,537)"/>
<path d="M0 0 C18.48 0 36.96 0 56 0 C52.3558226 2.4294516 50.28758728 2.16179575 46 2 C44.68 4.31 43.36 6.62 42 9 C41.01 9 40.02 9 39 9 C38.443125 9.7425 37.88625 10.485 37.3125 11.25 C33.41638879 15.88321333 29.66448255 17.66461059 23.6484375 18.421875 C17.23390646 18.66911602 11.86715179 18.59620953 6.62109375 14.625 C2.03987748 10.03274466 0 6.55028215 0 0 Z " fill="#282D2D" transform="translate(675,470)"/>
<path d="M0 0 C3.04909287 2.77460032 5.57401939 6.11096199 7 10 C7 11.32 7 12.64 7 14 C-6.53 14 -20.06 14 -34 14 C-32.49142449 6.45712243 -30.00746309 2.21875876 -23.78125 -2.0546875 C-16.09030791 -6.13628396 -7.08408953 -4.48429745 0 0 Z " fill="#292D2F" transform="translate(708,444)"/>
<path d="M0 0 C7.59 0 15.18 0 23 0 C23.020625 3.444375 23.04125 6.88875 23.0625 10.4375 C23.071604 11.52474365 23.08070801 12.6119873 23.09008789 13.73217773 C23.09258545 14.58239502 23.09508301 15.4326123 23.09765625 16.30859375 C23.10289307 17.18314209 23.10812988 18.05769043 23.11352539 18.95874023 C23 21 23 21 22 22 C20.5112814 22.08669432 19.018555 22.10703494 17.52734375 22.09765625 C16.62822266 22.09443359 15.72910156 22.09121094 14.80273438 22.08789062 C13.85720703 22.07951172 12.91167969 22.07113281 11.9375 22.0625 C10.98810547 22.05798828 10.03871094 22.05347656 9.06054688 22.04882812 C6.70696935 22.0370011 4.35351523 22.02052025 2 22 C2 19.36 2 16.72 2 14 C-3.28 14 -8.56 14 -14 14 C-14 13.67 -14 13.34 -14 13 C-9.38 13 -4.76 13 0 13 C0 8.71 0 4.42 0 0 Z " fill="#4B4E4B" transform="translate(594,414)"/>
<path d="M0 0 C2.3125 0.0625 2.3125 0.0625 5 1 C8.19814583 6.92249229 9.71973741 13.41900106 11 20 C8.44114774 21.01031065 5.87859624 22.00840145 3.3125 23 C2.59126953 23.28617187 1.87003906 23.57234375 1.12695312 23.8671875 C-2.71040321 25.3390502 -5.81566589 26.39614998 -10 26 C-13.64079463 19.56479472 -15.64134677 14.41216681 -16 7 C-14.08396843 6.35228492 -12.16714887 5.70690052 -10.25 5.0625 C-9.18265625 4.70285156 -8.1153125 4.34320313 -7.015625 3.97265625 C-4.68264275 3.22017881 -2.38625005 2.55022756 0 2 C0 1.34 0 0.68 0 0 Z " fill="#525450" transform="translate(416,434)"/>
<path d="M0 0 C0.33 0 0.66 0 1 0 C1 16.5 1 33 1 50 C1.99 50 2.98 50 4 50 C4 50.99 4 51.98 4 53 C4.66 53 5.32 53 6 53 C6.33 52.01 6.66 51.02 7 50 C10 50 10 50 13 52 C12.0479279 53.00596297 11.08812654 54.00461563 10.125 55 C9.59132813 55.556875 9.05765625 56.11375 8.5078125 56.6875 C7 58 7 58 5 58 C5 58.99 5 59.98 5 61 C5.639375 61.268125 6.27875 61.53625 6.9375 61.8125 C9 63 9 63 10 66 C12.00016466 67.20882096 12.00016466 67.20882096 14 68 C14 68.99 14 69.98 14 71 C5.09813988 74.38540438 -4.82293963 74.1084631 -13.80078125 70.9921875 C-17.32178697 69.40366982 -20.05009695 67.50100476 -23 65 C-23 64.34 -23 63.68 -23 63 C-15.41 63 -7.82 63 0 63 C0 42.21 0 21.42 0 0 Z " fill="#414440" transform="translate(512,414)"/>
<path d="M0 0 C2.70552388 2.19823815 4.44778333 3.89556667 6 7 C6.25605745 11.00089761 5.99046422 14.58464099 3.65234375 17.92578125 C0.66236354 20.77954368 -1.95675155 22.38694319 -6.125 22.6875 C-10.76053677 21.86506606 -12.15562829 20.68095162 -15 17 C-17.2472429 13.68264144 -17.47566378 10.96386483 -17 7 C-12.87773564 -0.65563382 -8.20820353 -2.31175786 0 0 Z " fill="#F6E9CE" transform="translate(1090,395)"/>
<path d="M0 0 C13.86 0 27.72 0 42 0 C42 17.49 42 34.98 42 53 C28.14 53 14.28 53 0 53 C0 35.51 0 18.02 0 0 Z M1 1 C1 15.19 1 29.38 1 44 C1.33 44 1.66 44 2 44 C3.10855117 36.30480728 3.34874915 28.63643771 3.60546875 20.87304688 C3.64285156 19.87466797 3.68023437 18.87628906 3.71875 17.84765625 C3.74904297 16.94023682 3.77933594 16.03281738 3.81054688 15.09790039 C4 13 4 13 5 12 C5.33 25.2 5.66 38.4 6 52 C17.55 52 29.1 52 41 52 C41 35.17 41 18.34 41 1 C27.8 1 14.6 1 1 1 Z " fill="#B3B0A0" transform="translate(392,356)"/>
<path d="M0 0 C2 2 2 2 2.13525391 3.97119141 C2.08288574 4.75671387 2.03051758 5.54223633 1.9765625 6.3515625 C1.925 7.20234375 1.8734375 8.053125 1.8203125 8.9296875 C1.75585938 9.81914062 1.69140625 10.70859375 1.625 11.625 C1.53992188 12.97078125 1.53992188 12.97078125 1.453125 14.34375 C1.31146317 16.56311862 1.15693806 18.78165927 1 21 C5.62 21 10.24 21 15 21 C14.67 29.58 14.34 38.16 14 47 C8.72 47 3.44 47 -2 47 C-1.96061829 51.75640658 -1.96061829 51.75640658 -1.90991211 56.51269531 C-1.89609532 59.82694295 -1.96423132 62.83560434 -3 66 C-5.64 66 -8.28 66 -11 66 C-10.01 65.67 -9.02 65.34 -8 65 C-8 64.34 -8 63.68 -8 63 C-21.86 63 -35.72 63 -50 63 C-50 62.34 -50 61.68 -50 61 C-34.49 61 -18.98 61 -3 61 C-3 56.05 -3 51.1 -3 46 C0.05269846 44.47365077 2.75845689 45.16205556 6.125 45.4375 C9.528125 45.7159375 9.528125 45.7159375 13 46 C13 38.41 13 30.82 13 23 C8.05 23 3.1 23 -2 23 C-2 24.32 -2 25.64 -2 27 C-3.1055189 26.06409496 -4.20935453 25.12620142 -5.3125 24.1875 C-5.92738281 23.66542969 -6.54226563 23.14335937 -7.17578125 22.60546875 C-8.85424679 21.12827531 -10.43882034 19.59960869 -12 18 C-10.55038946 14.8195112 -8.75253422 12.28002633 -6.5625 9.5625 C-4.12362586 6.4834214 -1.89415643 3.45404997 0 0 Z " fill="#3A3E3D" transform="translate(561,472)"/>
<path d="M0 0 C3.96 0 7.92 0 12 0 C12.05390357 2.93774463 12.0936255 5.87450232 12.125 8.8125 C12.14175781 9.64587891 12.15851563 10.47925781 12.17578125 11.33789062 C12.18222656 12.14033203 12.18867188 12.94277344 12.1953125 13.76953125 C12.20578613 14.50792236 12.21625977 15.24631348 12.22705078 16.00708008 C12 18 12 18 10 21 C10.99 21 11.98 21 13 21 C13 20.01 13 19.02 13 18 C13.66 18 14.32 18 15 18 C15 18.99 15 19.98 15 21 C15.66 21 16.32 21 17 21 C17 21.66 17 22.32 17 23 C16.34 23 15.68 23 15 23 C14.34 24.32 13.68 25.64 13 27 C13 25.68 13 24.36 13 23 C11.35 23 9.7 23 8 23 C8 22.34 8 21.68 8 21 C5.36 21 2.72 21 0 21 C0 14.07 0 7.14 0 0 Z " fill="#4A4E49" transform="translate(444,493)"/>
<path d="M0 0 C4.40676892 -0.6859852 8.5177113 -0.22189548 13 0 C13 5.28 13 10.56 13 16 C12.34 16 11.68 16 11 16 C11 15.01 11 14.02 11 13 C10.01 13.66 9.02 14.32 8 15 C4.75 15.3359375 4.75 15.3359375 1 15.375 C-0.2375 15.40335937 -1.475 15.43171875 -2.75 15.4609375 C-6 15 -6 15 -8 13.1640625 C-9 11 -9 11 -8 8 C-7.21625 7.54625 -6.4325 7.0925 -5.625 6.625 C-2.81735561 5.21189412 -2.81735561 5.21189412 -1.75390625 2.41796875 C-0.88572266 1.22107422 -0.88572266 1.22107422 0 0 Z " fill="#F8EBD2" transform="translate(773,427)"/>
<path d="M0 0 C0.45890625 0.40992188 0.9178125 0.81984375 1.390625 1.2421875 C2.31101562 2.05042969 2.31101562 2.05042969 3.25 2.875 C3.85328125 3.40867187 4.4565625 3.94234375 5.078125 4.4921875 C9.06452247 7.61972698 12.19627351 8.29540914 17.25 8.625 C18.32765625 8.69976562 19.4053125 8.77453125 20.515625 8.8515625 C21.33546875 8.90054687 22.1553125 8.94953125 23 9 C23 9.33 23 9.66 23 10 C20.36 10.33 17.72 10.66 15 11 C15.33 12.65 15.66 14.3 16 16 C15.360625 16.28875 14.72125 16.5775 14.0625 16.875 C11.84793921 17.82823451 11.84793921 17.82823451 11 20 C11.99 20.33 12.98 20.66 14 21 C14 21.66 14 22.32 14 23 C17.3 23 20.6 23 24 23 C24 23.33 24 23.66 24 24 C12.37668641 24.59663397 3.88528549 22.0410078 -6 16 C-6 14.68 -6 13.36 -6 12 C-4.02 12.495 -4.02 12.495 -2 13 C-2 12.34 -2 11.68 -2 11 C-0.68 11.33 0.64 11.66 2 12 C2 11.34 2 10.68 2 10 C1.01 9.67 0.02 9.34 -1 9 C-0.34 9 0.32 9 1 9 C1.07427838 5.65747276 1.06546953 3.1964086 0 0 Z " fill="#EEE2C9" transform="translate(677,479)"/>
<path d="M0 0 C2.97 0 5.94 0 9 0 C9 8.58 9 17.16 9 26 C6.03 26 3.06 26 0 26 C0 17.42 0 8.84 0 0 Z " fill="#AAA899" transform="translate(589,366)"/>
<path d="M0 0 C0.87785156 0.00515625 1.75570312 0.0103125 2.66015625 0.015625 C3.53542969 0.01046875 4.41070313 0.0053125 5.3125 0 C7.72265625 0.265625 7.72265625 0.265625 10.72265625 2.265625 C11.41214171 6.97710899 10.02577385 10.7168137 8.44921875 15.078125 C7.59738278 17.44702456 7.59738278 17.44702456 7.16015625 20.765625 C6.94359375 22.003125 6.94359375 22.003125 6.72265625 23.265625 C4.0138629 24.62002168 1.71332357 24.33063951 -1.27734375 24.265625 C-1.52734375 17.640625 -1.52734375 17.640625 0.72265625 14.265625 C0.88765625 13.09 1.05265625 11.914375 1.22265625 10.703125 C1.72265625 7.265625 1.72265625 7.265625 3.72265625 5.265625 C-0.73234375 5.760625 -0.73234375 5.760625 -5.27734375 6.265625 C-3.82239675 0.44583701 -3.82239675 0.44583701 0 0 Z " fill="#EEE2CE" transform="translate(550.27734375,537.734375)"/>
<path d="M0 0 C0.33 0.66 0.66 1.32 1 2 C4.19902639 2.08886184 6.92677456 1.91058531 10 1 C9.01 2.485 9.01 2.485 8 4 C8.99 4.33 9.98 4.66 11 5 C10.06409496 6.1055189 9.12620142 7.20935453 8.1875 8.3125 C7.66542969 8.92738281 7.14335938 9.54226563 6.60546875 10.17578125 C5.13668249 11.84469411 3.57203741 13.42796259 2 15 C2 11.37 2 7.74 2 4 C-2.95 4 -7.9 4 -13 4 C-13 27.76 -13 51.52 -13 76 C-13.33 76 -13.66 76 -14 76 C-14 51.91 -14 27.82 -14 3 C-10.7 2.67 -7.4 2.34 -4 2 C-2.68 1.34 -1.36 0.68 0 0 Z " fill="#4C4C46" transform="translate(757,424)"/>
<path d="M0 0 C0.556875 0.185625 1.11375 0.37125 1.6875 0.5625 C4.40162004 1.07598217 6.32685483 0.59846534 9 0 C6.81659819 7.86379677 4.00714974 15.41675284 1 23 C0.34 23 -0.32 23 -1 23 C-2.98 17.72 -4.96 12.44 -7 7 C-5.35 7 -3.7 7 -2 7 C-1.67 7.33 -1.34 7.66 -1 8 C-0.67 5.36 -0.34 2.72 0 0 Z " fill="#272C2D" transform="translate(831,456)"/>
<path d="M0 0 C1.58294782 -0.05437607 3.16644256 -0.09296271 4.75 -0.125 C5.63171875 -0.14820313 6.5134375 -0.17140625 7.421875 -0.1953125 C10.1135858 0.00860498 11.69904974 0.63448279 14 2 C14 2.66 14 3.32 14 4 C14.99 4 15.98 4 17 4 C17.66 3.34 18.32 2.68 19 2 C22.465 3.485 22.465 3.485 26 5 C25.67 6.98 25.34 8.96 25 11 C25.66 11 26.32 11 27 11 C27 11.66 27 12.32 27 13 C27.66 13 28.32 13 29 13 C29 12.34 29 11.68 29 11 C29.66 11 30.32 11 31 11 C31 11.66 31 12.32 31 13 C31.66 13 32.32 13 33 13 C34.63159097 17.69082405 35.26975579 20.2384158 34 25 C33.484375 24.34 32.96875 23.68 32.4375 23 C31.633125 22.01 30.82875 21.02 30 20 C29.525625 19.38382812 29.05125 18.76765625 28.5625 18.1328125 C20.9844526 8.76955201 11.42905926 4.21130636 0 1 C0 0.67 0 0.34 0 0 Z " fill="#292D2C" transform="translate(525,398)"/>
<path d="M0 0 C6.27 0 12.54 0 19 0 C17.02 3.96 15.04 7.92 13 12 C9 12 9 12 6.640625 9.8828125 C5.85171875 8.97273438 5.0628125 8.06265625 4.25 7.125 C3.45078125 6.22007812 2.6515625 5.31515625 1.828125 4.3828125 C0 2 0 2 0 0 Z " fill="#40423D" transform="translate(528,463)"/>
<path d="M0 0 C6.75 -0.125 6.75 -0.125 9 1 C13.14503661 1.24787017 13.14503661 1.24787017 17 0 C17 0.66 17 1.32 17 2 C17.99 2.33 18.98 2.66 20 3 C14.6251615 5.68741925 8.00925213 4 2 4 C2 19.18 2 34.36 2 50 C-0.05723034 46.91415449 -0.25993316 46.17351241 -0.3347168 42.66796875 C-0.35781418 41.79696533 -0.38091156 40.92596191 -0.40470886 40.02856445 C-0.41939713 39.09101318 -0.43408539 38.15346191 -0.44921875 37.1875 C-0.47095657 36.22223389 -0.4926944 35.25696777 -0.51509094 34.26245117 C-0.55900382 32.22161055 -0.59820455 30.1806639 -0.63305664 28.13964844 C-0.68729151 25.01202302 -0.75748306 21.88506004 -0.83007812 18.7578125 C-0.87073719 16.77606084 -0.91048154 14.79429016 -0.94921875 12.8125 C-0.96997971 11.87494873 -0.99074066 10.93739746 -1.01213074 9.97143555 C-1.02577164 9.10043213 -1.03941254 8.22942871 -1.0534668 7.33203125 C-1.06741989 6.56608643 -1.08137299 5.8001416 -1.0957489 5.01098633 C-1 3 -1 3 0 0 Z " fill="#2B2C29" transform="translate(993,424)"/>
<path d="M0 0 C0.99 0.66 1.98 1.32 3 2 C3 2.66 3 3.32 3 4 C2.67 4.33 2.34 4.66 2 5 C2.99 6.485 2.99 6.485 4 8 C3.3699112 9.6808362 2.69699681 11.3457879 2 13 C1.71280698 16.00975899 1.71280698 16.00975899 1.77294922 19.2590332 C1.77310028 20.49994217 1.77325134 21.74085114 1.77340698 23.0193634 C1.78361857 24.36317101 1.79405054 25.70697695 1.8046875 27.05078125 C1.80842069 28.4336883 1.81126622 29.81659802 1.81326294 31.19950867 C1.82087538 34.8278034 1.84050309 38.45593637 1.8626709 42.08416748 C1.88318101 45.79111544 1.89227567 49.4980897 1.90234375 53.20507812 C1.92375145 60.47012559 1.95785825 67.73504007 2 75 C2.66 75.33 3.32 75.66 4 76 C2.02 76.495 2.02 76.495 0 77 C0 52.91 0 28.82 0 4 C-5.28 4 -10.56 4 -16 4 C-15.34 3.01 -14.68 2.02 -14 1 C-11.6875 0.70703125 -11.6875 0.70703125 -9 0.8125 C-8.113125 0.83957031 -7.22625 0.86664063 -6.3125 0.89453125 C-5.549375 0.92933594 -4.78625 0.96414063 -4 1 C-1.9254644 1.1490712 -1.9254644 1.1490712 0 0 Z " fill="#292928" transform="translate(1060,424)"/>
<path d="M0 0 C2 2 2 2 2.875 4.5625 C3.74070433 7.13755097 3.74070433 7.13755097 5.9375 7.875 C8.19937274 8.14078645 8.19937274 8.14078645 11 7 C12.32 7 13.64 7 15 7 C15 7.66 15 8.32 15 9 C15.99 9 16.98 9 18 9 C18.33 8.34 18.66 7.68 19 7 C19 7.66 19 8.32 19 9 C20.32 9.66 21.64 10.32 23 11 C23 11.66 23 12.32 23 13 C18.28371433 14.88651427 14.02784818 15.80445571 9 15 C4.21964353 12.60982177 1.43037038 9.76352594 -1 5 C-0.75 2.125 -0.75 2.125 0 0 Z " fill="#2F3232" transform="translate(597,473)"/>
<path d="M0 0 C1.32 0.33 2.64 0.66 4 1 C2.44824219 2.98925781 2.44824219 2.98925781 0 5 C-3.29980469 5.36230469 -3.29980469 5.36230469 -7.171875 5.171875 C-9.04504395 5.09598145 -9.04504395 5.09598145 -10.95605469 5.01855469 C-12.53805664 4.92993164 -14.12005859 4.84130859 -15.75 4.75 C-23.29875 4.37875 -23.29875 4.37875 -31 4 C-31 24.13 -31 44.26 -31 65 C-22.42 65 -13.84 65 -5 65 C-5 65.33 -5 65.66 -5 66 C-13.91 66 -22.82 66 -32 66 C-32 45.21 -32 24.42 -32 3 C-21.44 3 -10.88 3 0 3 C0 2.01 0 1.02 0 0 Z " fill="#555954" transform="translate(471,412)"/>
<path d="M0 0 C1.48306641 0.02126953 1.48306641 0.02126953 2.99609375 0.04296875 C3.98738281 0.04941406 4.97867188 0.05585937 6 0.0625 C8.43359375 0.23046875 8.43359375 0.23046875 9.43359375 1.23046875 C9.87109375 3.35546875 9.87109375 3.35546875 9.43359375 6.23046875 C7.63599348 8.76178341 5.59115062 11.00227757 3.43359375 13.23046875 C0.43359375 12.23046875 0.43359375 12.23046875 -0.75390625 10.16796875 C-1.02203125 9.52859375 -1.29015625 8.88921875 -1.56640625 8.23046875 C-2.88640625 8.23046875 -4.20640625 8.23046875 -5.56640625 8.23046875 C-4.54611698 0.40825099 -4.54611698 0.40825099 0 0 Z " fill="#ECE3D0" transform="translate(528.56640625,537.76953125)"/>
<path d="M0 0 C1.32 0.66 2.64 1.32 4 2 C3.01 2 2.02 2 1 2 C0.7525 2.61875 0.505 3.2375 0.25 3.875 C-1.20628639 6.35068687 -2.37812506 6.95125002 -5 8 C-4.34 9.98 -3.68 11.96 -3 14 C-2.175 13.835 -1.35 13.67 -0.5 13.5 C2.21152596 13.11263915 4.54013306 12.9604399 7.25 13 C10.813661 13.2795085 10.813661 13.2795085 13 12 C13.66 11.01 14.32 10.02 15 9 C14.67 10.98 14.34 12.96 14 15 C12.69675781 15.03867187 12.69675781 15.03867187 11.3671875 15.078125 C2.40073814 15.46511843 2.40073814 15.46511843 -5 20 C-5 19.34 -5 18.68 -5 18 C-5.99 18 -6.98 18 -8 18 C-8.33 16.35 -8.66 14.7 -9 13 C-10.32 12.67 -11.64 12.34 -13 12 C-12.67 11.01 -12.34 10.02 -12 9 C-11.34 9.33 -10.68 9.66 -10 10 C-9.29423828 9.16855469 -9.29423828 9.16855469 -8.57421875 8.3203125 C-7.64029297 7.23363281 -7.64029297 7.23363281 -6.6875 6.125 C-6.07261719 5.40570313 -5.45773437 4.68640625 -4.82421875 3.9453125 C-3 2 -3 2 0 0 Z M-10 18 C-8 19 -8 19 -8 19 Z " fill="#E8DFCA" transform="translate(770,428)"/>
<path d="M0 0 C-1.25541557 2.51083114 -2.50063488 2.87125446 -5 4 C-5 4.66 -5 5.32 -5 6 C-5.66 6 -6.32 6 -7 6 C-7 6.66 -7 7.32 -7 8 C-4.69 8.33 -2.38 8.66 0 9 C0 9.33 0 9.66 0 10 C-1.98 10.33 -3.96 10.66 -6 11 C-5.34 11.66 -4.68 12.32 -4 13 C-6.97 13 -9.94 13 -13 13 C-13 12.34 -13 11.68 -13 11 C-15.64 11 -18.28 11 -21 11 C-20 8 -20 8 -17.9375 6.8125 C-17.298125 6.544375 -16.65875 6.27625 -16 6 C-16 4.68 -16 3.36 -16 2 C-13.04655319 0.03103546 -11.94214163 -0.33984715 -8.5625 -0.6875 C-7.41974609 -0.81705078 -7.41974609 -0.81705078 -6.25390625 -0.94921875 C-3.96788208 -1.00072363 -2.17903015 -0.66016176 0 0 Z " fill="#F9EDD3" transform="translate(704,489)"/>
<path d="M0 0 C0.99 0 1.98 0 3 0 C3.33 0.99 3.66 1.98 4 3 C5.76358799 3.87889401 5.76358799 3.87889401 7.875 4.3125 C8.57367187 4.49425781 9.27234375 4.67601562 9.9921875 4.86328125 C12.32045862 5.22687667 12.32045862 5.22687667 15 3 C15 3.66 15 4.32 15 5 C18.49234244 5.09978121 21.59437148 4.77842938 25 4 C25.33 4.99 25.66 5.98 26 7 C21.44188888 10.74416271 17.95398062 11.30704254 12.02734375 11.21875 C7.90365123 10.77380437 4.98057992 9.04820612 2.1875 6.0625 C1.01141961 4.01983406 0.41273584 2.31132071 0 0 Z " fill="#2D302D" transform="translate(1012,477)"/>
<path d="M0 0 C0.80179687 0.00451172 1.60359375 0.00902344 2.4296875 0.01367188 C4.41149006 0.02546832 6.39325433 0.04340395 8.375 0.0625 C8.75563221 2.3885857 9.08769945 4.72305264 9.375 7.0625 C8.375 8.0625 8.375 8.0625 5.3125 8.3125 C-0.53883416 7.94098672 -5.49200344 5.84287314 -10.625 3.0625 C-10.625 2.4025 -10.625 1.7425 -10.625 1.0625 C-7.31505287 -0.59247356 -3.63377 -0.03834335 0 0 Z " fill="#272C2B" transform="translate(501.625,477.9375)"/>
<path d="M0 0 C0.66 0.33 1.32 0.66 2 1 C1.43628586 4.26954202 0.50037734 5.82575883 -2 8 C0.91517292 6.92598892 2.77810176 6.22189824 5 4 C6.17690869 7.53072607 5.7246598 8.52951402 4.625 12 C2.97050702 17.6585171 2.32933869 23.12868616 2 29 C-1.06813137 24.39780294 -0.25317679 19.77223751 0.5 14.5 C0.665 13.675 0.83 12.85 1 12 C0.34 12 -0.32 12 -1 12 C-1.33 12.66 -1.66 13.32 -2 14 C-2 13.34 -2 12.68 -2 12 C-2.66 12 -3.32 12 -4 12 C-4.33 12.66 -4.66 13.32 -5 14 C-6.125 11.1875 -6.125 11.1875 -7 8 C-6.34 7.01 -5.68 6.02 -5 5 C-4.01 5 -3.02 5 -2 5 C-2 3.68 -2 2.36 -2 1 C-1.34 0.67 -0.68 0.34 0 0 Z " fill="#282E2B" transform="translate(873,424)"/>
<path d="M0 0 C0.66 0.99 1.32 1.98 2 3 C1.01 4.485 1.01 4.485 0 6 C-2.17509868 11.07523025 -2.2165648 15.58587995 -2 21 C-2.99 20.67 -3.98 20.34 -5 20 C-5.33 20.99 -5.66 21.98 -6 23 C-7.98 21.35 -9.96 19.7 -12 18 C-10.55038946 14.8195112 -8.75253422 12.28002633 -6.5625 9.5625 C-4.12362586 6.4834214 -1.89415643 3.45404997 0 0 Z " fill="#484A46" transform="translate(561,472)"/>
<path d="M0 0 C2.64 0 5.28 0 8 0 C8 3.96 8 7.92 8 12 C5.36 12 2.72 12 0 12 C0 8.04 0 4.08 0 0 Z " fill="#C0BDAF" transform="translate(611,380)"/>
<path d="M0 0 C0.87785156 0.00515625 1.75570312 0.0103125 2.66015625 0.015625 C3.53542969 0.01046875 4.41070313 0.0053125 5.3125 0 C7.72265625 0.265625 7.72265625 0.265625 10.72265625 2.265625 C10.91015625 5.390625 10.91015625 5.390625 10.72265625 8.265625 C7.52624765 9.33109453 5.06518349 9.33990338 1.72265625 9.265625 C2.38265625 7.945625 3.04265625 6.625625 3.72265625 5.265625 C-0.73234375 5.760625 -0.73234375 5.760625 -5.27734375 6.265625 C-3.82239675 0.44583701 -3.82239675 0.44583701 0 0 Z " fill="#F0E9D9" transform="translate(550.27734375,537.734375)"/>
<path d="M0 0 C1.07765625 0.00902344 2.1553125 0.01804687 3.265625 0.02734375 C4.08546875 0.03894531 4.9053125 0.05054688 5.75 0.0625 C4.43 0.3925 3.11 0.7225 1.75 1.0625 C1.75 2.0525 1.75 3.0425 1.75 4.0625 C1.04875 4.09988281 0.3475 4.13726562 -0.375 4.17578125 C-9.99509642 4.64834552 -9.99509642 4.64834552 -18.25 9.0625 C-19.91617115 9.10313832 -21.58388095 9.105221 -23.25 9.0625 C-17.55318572 2.12724783 -8.5999522 -0.09347774 0 0 Z " fill="#E0DAC7" transform="translate(694.25,425.9375)"/>
<path d="M0 0 C0.69895386 0.00141495 1.39790771 0.0028299 2.11804199 0.00428772 C4.31832429 0.00981955 6.51849923 0.02235848 8.71875 0.03515625 C10.22395685 0.04018009 11.72916532 0.04474143 13.234375 0.04882812 C16.89586735 0.05976648 20.55729817 0.07698266 24.21875 0.09765625 C24.21875 0.42765625 24.21875 0.75765625 24.21875 1.09765625 C21.57875 1.42765625 18.93875 1.75765625 16.21875 2.09765625 C16.21875 2.42765625 16.21875 2.75765625 16.21875 3.09765625 C12.57293402 3.12704705 8.92714913 3.14458499 5.28125 3.16015625 C4.25966797 3.16853516 3.23808594 3.17691406 2.18554688 3.18554688 C-3.8934497 3.20496859 -9.7538732 2.89585943 -15.78125 2.09765625 C-15.78125 1.76765625 -15.78125 1.43765625 -15.78125 1.09765625 C-10.46917752 0.35096902 -5.3770361 -0.0216816 0 0 Z " fill="#25292F" transform="translate(407.78125,409.90234375)"/>
<path d="M0 0 C3 2 3 2 3.5625 3.75 C3.706875 4.4925 3.85125 5.235 4 6 C4.391875 7.010625 4.78375 8.02125 5.1875 9.0625 C5.455625 10.031875 5.72375 11.00125 6 12 C5.01 13.485 5.01 13.485 4 15 C-0.2742558 13.4169423 -2.26531794 10.49431596 -5 7 C-3.35 4.69 -1.7 2.38 0 0 Z " fill="#2D3030" transform="translate(970,482)"/>
<path d="M0 0 C2 3 2 3 3 6 C1.35 6.66 -0.3 7.32 -2 8 C-1.814375 8.845625 -1.62875 9.69125 -1.4375 10.5625 C-0.95229833 14.37479886 -1.08432603 17.26686765 -2 21 C-3.875 22.9375 -3.875 22.9375 -6 24 C-6.99 24 -7.98 24 -9 24 C-3.57142857 7.14285714 -3.57142857 7.14285714 0 0 Z " fill="#2B2F2D" transform="translate(865,434)"/>
<path d="M0 0 C0 2.97 0 5.94 0 9 C-3.30323986 10.10107995 -4.70504769 9.86709271 -8 9 C-8.33 8.67 -8.66 8.34 -9 8 C-8.94921875 6.1875 -8.94921875 6.1875 -8.6875 4 C-8.60886719 3.278125 -8.53023437 2.55625 -8.44921875 1.8125 C-8.30097656 1.214375 -8.15273438 0.61625 -8 0 C-5.13822943 -1.43088528 -3.06624227 -0.59991697 0 0 Z " fill="#262A2B" transform="translate(674,390)"/>
<path d="M0 0 C0.103125 0.53625 0.20625 1.0725 0.3125 1.625 C0.96067276 4.16884843 0.96067276 4.16884843 2.5625 6.9375 C4.02051207 10.04369964 4.7245048 11.64916529 4 15 C1.8125 16.9375 1.8125 16.9375 -1 18 C-3.8125 17.1875 -3.8125 17.1875 -6 16 C-5.360625 15.71125 -4.72125 15.4225 -4.0625 15.125 C-1.84793921 14.17176549 -1.84793921 14.17176549 -1 12 C-0.34 12 0.32 12 1 12 C1 11.34 1 10.68 1 10 C0.34 10 -0.32 10 -1 10 C-1 9.01 -1 8.02 -1 7 C-1.66 7 -2.32 7 -3 7 C-3 7.99 -3 8.98 -3 10 C-3.99 10 -4.98 10 -6 10 C-4.79157144 5.56909529 -3.48331435 3.01887244 0 0 Z " fill="#2F2C27" transform="translate(460,504)"/>
<path d="M0 0 C1.65 0.33 3.3 0.66 5 1 C6.16050234 4.48150702 6.24802967 6.56791839 5 10 C4.34 10.433125 3.68 10.86625 3 11.3125 C0.60758753 12.9770579 0.60758753 12.9770579 0.25 16.6875 C0.1675 17.780625 0.085 18.87375 0 20 C-0.33 20 -0.66 20 -1 20 C-1.22224251 17.41718164 -1.42823488 14.83477813 -1.625 12.25 C-1.72167969 11.15558594 -1.72167969 11.15558594 -1.8203125 10.0390625 C-2.10381649 6.14088264 -2.27081383 3.29354678 0 0 Z " fill="#252B2F" transform="translate(762,452)"/>
<path d="M0 0 C0.33 0 0.66 0 1 0 C1.79996123 17.74970668 2.13348985 35.24780508 1 53 C0.67 53 0.34 53 0 53 C-0.33 45.41 -0.66 37.82 -1 30 C-1.33 30 -1.66 30 -2 30 C-2 27.69 -2 25.38 -2 23 C-1.34 23 -0.68 23 0 23 C0 15.41 0 7.82 0 0 Z " fill="#272C2F" transform="translate(741,434)"/>
<path d="M0 0 C15.84 0 31.68 0 48 0 C48 3 48 3 47 5 C44.36 5 41.72 5 39 5 C39.99 4.67 40.98 4.34 42 4 C42 3.34 42 2.68 42 2 C28.14 2 14.28 2 0 2 C0 1.34 0 0.68 0 0 Z " fill="#353A3A" transform="translate(511,533)"/>
<path d="M0 0 C0.33 0 0.66 0 1 0 C1 3.3 1 6.6 1 10 C-2.90432869 11.95216435 -5.72213252 12.50639991 -10 13 C-9.67 12.34 -9.34 11.68 -9 11 C-9.66 10.34 -10.32 9.68 -11 9 C-10.45730469 8.68546875 -9.91460938 8.3709375 -9.35546875 8.046875 C-5.49512027 5.73762149 -2.44696763 3.88636035 0 0 Z " fill="#312F2E" transform="translate(628,491)"/>
<path d="M0 0 C2.00854143 1.67020423 2.91317453 2.60074516 3.4765625 5.19140625 C3.52554688 5.97386719 3.57453125 6.75632812 3.625 7.5625 C3.82872181 10.90775258 3.82872181 10.90775258 5 14 C4.01 14.495 4.01 14.495 3 15 C3.66 15.66 4.32 16.32 5 17 C4.67 17.66 4.34 18.32 4 19 C2.68 18.67 1.36 18.34 0 18 C-0.19384179 15.18780295 -0.38036603 12.37545804 -0.5625 9.5625 C-0.61857422 8.76005859 -0.67464844 7.95761719 -0.73242188 7.13085938 C-0.8616295 5.08937889 -0.9351273 3.04453631 -1 1 C-0.67 0.67 -0.34 0.34 0 0 Z M2 0 C2.66 0 3.32 0 4 0 C4 0.66 4 1.32 4 2 C3.34 2 2.68 2 2 2 C2 1.34 2 0.68 2 0 Z " fill="#2B2E2C" transform="translate(731,452)"/>
<path d="M0 0 C2.375 1.3125 2.375 1.3125 3.1875 3.4375 C3.249375 4.05625 3.31125 4.675 3.375 5.3125 C-1.24869023 7.11929587 -5.05028653 7.53089082 -10 7.4375 C-11.24523437 7.41945313 -12.49046875 7.40140625 -13.7734375 7.3828125 C-15.18496094 7.34800781 -15.18496094 7.34800781 -16.625 7.3125 C-14.20521468 6.04749292 -12.08089192 5.15246821 -9.4375 4.375 C-8.509375 4.024375 -7.58125 3.67375 -6.625 3.3125 C-6.295 2.3225 -5.965 1.3325 -5.625 0.3125 C-2.625 -0.6875 -2.625 -0.6875 0 0 Z " fill="#514D45" transform="translate(522.625,479.6875)"/>
<path d="M0 0 C2.70552388 2.19823815 4.44778333 3.89556667 6 7 C6.039992 8.99960012 6.04346799 11.00047242 6 13 C5.34 13 4.68 13 4 13 C4 11.35 4 9.7 4 8 C3.34 8 2.68 8 2 8 C2 7.34 2 6.68 2 6 C0.68 5.34 -0.64 4.68 -2 4 C-2 3.34 -2 2.68 -2 2 C-4.64 2.66 -7.28 3.32 -10 4 C-10.33 2.68 -10.66 1.36 -11 0 C-7.49337774 -1.75331113 -3.70839169 -0.95431841 0 0 Z " fill="#E5E0D0" transform="translate(1090,395)"/>
<path d="M0 0 C0.33 0.66 0.66 1.32 1 2 C1.66 2 2.32 2 3 2 C3.33 2.66 3.66 3.32 4 4 C4.99 3.34 5.98 2.68 7 2 C7.2236337 3.41433206 7.42826476 4.83167618 7.625 6.25 C7.74101563 7.03890625 7.85703125 7.8278125 7.9765625 8.640625 C8.00319395 11.32152459 7.36592084 12.72694089 6 15 C5.34 15 4.68 15 4 15 C2.35 10.38 0.7 5.76 -1 1 C-0.67 0.67 -0.34 0.34 0 0 Z " fill="#2A2D29" transform="translate(816,438)"/>
<path d="M0 0 C2.4375 0.1875 2.4375 0.1875 3.4375 1.1875 C3.625 4.125 3.625 4.125 3.4375 7.1875 C1.4375 9.1875 1.4375 9.1875 -1.125 9.375 C-3.5625 9.1875 -3.5625 9.1875 -4.5625 8.1875 C-4.75 5.25 -4.75 5.25 -4.5625 2.1875 C-2.5625 0.1875 -2.5625 0.1875 0 0 Z " fill="#EDE7D6" transform="translate(529.5625,552.8125)"/>
<path d="M0 0 C1.58294782 -0.05437607 3.16644256 -0.09296271 4.75 -0.125 C5.63171875 -0.14820313 6.5134375 -0.17140625 7.421875 -0.1953125 C10.1135858 0.00860498 11.69904974 0.63448279 14 2 C14 2.66 14 3.32 14 4 C14.99 4 15.98 4 17 4 C17.66 3.34 18.32 2.68 19 2 C22.465 3.485 22.465 3.485 26 5 C25.67 6.32 25.34 7.64 25 9 C24.67 8.34 24.34 7.68 24 7 C23.05125 7.268125 22.1025 7.53625 21.125 7.8125 C16.48773318 8.5071513 13.41869933 6.46843541 9.4453125 4.28125 C6.34390048 2.656229 3.39371112 1.81153962 0 1 C0 0.67 0 0.34 0 0 Z " fill="#373836" transform="translate(525,398)"/>
<path d="M0 0 C3.96 0 7.92 0 12 0 C11.01 1.485 11.01 1.485 10 3 C6.875 3.1875 6.875 3.1875 4 3 C1.87953208 6.53411321 1.46800711 9.94393835 1 14 C3.97 14 6.94 14 10 14 C10 14.33 10 14.66 10 15 C6.37 15 2.74 15 -1 15 C-0.67 10.05 -0.34 5.1 0 0 Z " fill="#D7D4C2" transform="translate(802,515)"/>
<path d="M0 0 C1.56584311 2.34876467 2.82514963 4.54545647 4.0625 7.0625 C4.40410156 7.75472656 4.74570312 8.44695312 5.09765625 9.16015625 C5.39542969 9.76730469 5.69320312 10.37445313 6 11 C6.33 11.66 6.66 12.32 7 13 C4.50935112 13.68707555 2.62113708 14 0 14 C-0.53229326 12.73392393 -1.05044544 11.46189588 -1.5625 10.1875 C-1.85253906 9.47980469 -2.14257812 8.77210938 -2.44140625 8.04296875 C-3 6 -3 6 -2 3 C-1.34 2.01 -0.68 1.02 0 0 Z M-3 12 C-2.01 12.495 -2.01 12.495 -1 13 C-1.99 13.495 -1.99 13.495 -3 14 C-3 13.34 -3 12.68 -3 12 Z " fill="#2C312F" transform="translate(580,482)"/>
<path d="M0 0 C0.33 1.98 0.66 3.96 1 6 C-1.31 6.66 -3.62 7.32 -6 8 C-6.33 7.34 -6.66 6.68 -7 6 C-9.02463255 5.34786708 -9.02463255 5.34786708 -11 5 C-11 3 -11 3 -10 1.375 C-6.79914107 -0.82559052 -3.82106483 -0.18792122 0 0 Z " fill="#392C1F" transform="translate(361,449)"/>
<path d="M0 0 C0.66 0 1.32 0 2 0 C2.33872513 1.41538717 2.67074624 2.83237963 3 4.25 C3.185625 5.03890625 3.37125 5.8278125 3.5625 6.640625 C4 9 4 9 4 13 C3.38125 13.04125 2.7625 13.0825 2.125 13.125 C1.42375 13.41375 0.7225 13.7025 0 14 C-1.3045656 16.99615946 -1.3045656 16.99615946 -2 20 C-2.33 19.01 -2.66 18.02 -3 17 C-3.99 17.33 -4.98 17.66 -6 18 C-5.505 16.515 -5.505 16.515 -5 15 C-4.34 14.67 -3.68 14.34 -3 14 C-1.74172877 12.15017528 -1.74172877 12.15017528 -1 10 C-1.33 9.01 -1.66 8.02 -2 7 C-1.34 6.34 -0.68 5.68 0 5 C0 4.67 0 4.34 0 4 C0 2.68 0 1.36 0 0 Z " fill="#FBEED4" transform="translate(553,418)"/>
<path d="M0 0 C3.63 0 7.26 0 11 0 C11 14.19 11 28.38 11 43 C10.67 43 10.34 43 10 43 C9.83185627 38.24965355 9.67135467 33.4991322 9.51782227 28.74829102 C9.46456697 27.13331212 9.40925137 25.51839976 9.35180664 23.90356445 C9.26943371 21.57778262 9.19455776 19.25185948 9.12109375 16.92578125 C9.09405869 16.20787918 9.06702362 15.48997711 9.03916931 14.75032043 C8.92870878 11.0108536 9.0801542 7.63292634 10 4 C9.34 4 8.68 4 8 4 C8 3.01 8 2.02 8 1 C5.36 1 2.72 1 0 1 C0 0.67 0 0.34 0 0 Z " fill="#F9F0DD" transform="translate(584,429)"/>
<path d="M0 0 C0.8125 1.6875 0.8125 1.6875 1 4 C-1.3125 6.75 -1.3125 6.75 -4 9 C-4.66 9 -5.32 9 -6 9 C-6.33 9.99 -6.66 10.98 -7 12 C-8.9375 11.6875 -8.9375 11.6875 -11 11 C-11.33 10.01 -11.66 9.02 -12 8 C-12.66 7.67 -13.32 7.34 -14 7 C-12.47930961 5.47930961 -10.78297256 5.55446492 -8.6875 5.1875 C-4.6915792 4.35395601 -2.55403238 3.33134658 0 0 Z " fill="#272C2B" transform="translate(1094,411)"/>
<path d="M0 0 C0.33 0.66 0.66 1.32 1 2 C-0.20398438 2.03738281 -1.40796875 2.07476562 -2.6484375 2.11328125 C-4.22399011 2.17892928 -5.79950954 2.24537701 -7.375 2.3125 C-8.1690625 2.33505859 -8.963125 2.35761719 -9.78125 2.38085938 C-11.86215581 2.47785075 -13.93441332 2.72994825 -16 3 C-18.22535794 6.33803691 -18.28978404 7.62819711 -18.4140625 11.54296875 C-18.45273437 12.61611328 -18.49140625 13.68925781 -18.53125 14.79492188 C-18.5621875 15.91447266 -18.593125 17.03402344 -18.625 18.1875 C-18.66367187 19.31865234 -18.70234375 20.44980469 -18.7421875 21.61523438 C-18.83652533 24.4099925 -18.92211652 27.20474278 -19 30 C-19.33 30 -19.66 30 -20 30 C-20 20.43 -20 10.86 -20 1 C-10.1 0.505 -10.1 0.505 0 0 Z " fill="#2D2E2C" transform="translate(616,435)"/>
<path d="M0 0 C0.99 0 1.98 0 3 0 C2.67 1.32 2.34 2.64 2 4 C4.31 3.34 6.62 2.68 9 2 C8.814375 3.11375 8.62875 4.2275 8.4375 5.375 C7.68319343 8.82568861 7.68319343 8.82568861 9 11 C8.0625 13.125 8.0625 13.125 7 15 C6.401875 14.0925 5.80375 13.185 5.1875 12.25 C3.17071002 9.12387871 3.17071002 9.12387871 1.25 6.9375 C-0.32665022 4.49369216 -0.23769395 2.8523274 0 0 Z " fill="#252C2B" transform="translate(967,408)"/>
<path d="M0 0 C0.33 0.99 0.66 1.98 1 3 C3.01508358 3.73323796 3.01508358 3.73323796 5 4 C5 4.66 5 5.32 5 6 C3.20763933 5.52343588 1.41613103 5.04366502 -0.375 4.5625 C-1.37273438 4.29566406 -2.37046875 4.02882813 -3.3984375 3.75390625 C-6 3 -6 3 -8 2 C-10.71262116 1.7677354 -13.40773126 1.58063765 -16.125 1.4375 C-16.87910156 1.39431641 -17.63320313 1.35113281 -18.41015625 1.30664062 C-20.27321888 1.2005168 -22.13658524 1.09974999 -24 1 C-24 0.67 -24 0.34 -24 0 C-21.31288976 -0.19647038 -18.62571669 -0.38239615 -15.9375 -0.5625 C-15.18533203 -0.61857422 -14.43316406 -0.67464844 -13.65820312 -0.73242188 C-8.92140498 -1.04000617 -4.67457788 -0.83807173 0 0 Z " fill="#33332D" transform="translate(947,396)"/>
<path d="M0 0 C0.33 0 0.66 0 1 0 C1 5.28 1 10.56 1 16 C0.34 16.33 -0.32 16.66 -1 17 C-1 18.32 -1 19.64 -1 21 C-3 19.875 -3 19.875 -5 18 C-5.25 14.8125 -5.25 14.8125 -5 12 C-4.01 12.33 -3.02 12.66 -2 13 C-2.04125 11.783125 -2.0825 10.56625 -2.125 9.3125 C-2.13754508 5.78105873 -1.59998217 3.19996434 0 0 Z " fill="#3D4244" transform="translate(560,478)"/>
<path d="M0 0 C0 0.33 0 0.66 0 1 C-1.98 1 -3.96 1 -6 1 C-5.71125 1.68707031 -5.4225 2.37414062 -5.125 3.08203125 C-4.568125 4.43361328 -4.568125 4.43361328 -4 5.8125 C-3.62875 6.70582031 -3.2575 7.59914063 -2.875 8.51953125 C-2 11 -2 11 -2 14 C-3.65 13.67 -5.3 13.34 -7 13 C-7 10.36 -7 7.72 -7 5 C-7.99 4.67 -8.98 4.34 -10 4 C-10.66 5.32 -11.32 6.64 -12 8 C-12.47840532 2.6179402 -12.47840532 2.6179402 -10.5 0.0625 C-6.74062617 -1.53523388 -3.98734193 -0.73101269 0 0 Z " fill="#343633" transform="translate(800,427)"/>
<path d="M0 0 C3.58176428 1.32657936 5.42259675 3.51406958 7.76171875 6.46875 C9.37011646 8.45768345 11.15913551 10.22731568 13 12 C11.02 12.99 11.02 12.99 9 14 C8.566875 13.401875 8.13375 12.80375 7.6875 12.1875 C5.2466765 9.02346954 3.84603187 7.28201062 0 6 C0 4 0 2 0 0 Z " fill="#2D2E26" transform="translate(467,481)"/>
<path d="M0 0 C0.66 0 1.32 0 2 0 C2 0.66 2 1.32 2 2 C2.99 2 3.98 2 5 2 C7.125 6.625 7.125 6.625 6 10 C3.25851328 9.62952882 1.41406801 9.31412056 -0.8125 7.625 C-2 6 -2 6 -2 3 C-1.34 3 -0.68 3 0 3 C0 2.01 0 1.02 0 0 Z " fill="#232C2D" transform="translate(546,393)"/>
<path d="M0 0 C1.1446875 0.3403125 1.1446875 0.3403125 2.3125 0.6875 C1.6525 1.3475 0.9925 2.0075 0.3125 2.6875 C-0.36401207 4.88454511 -0.36401207 4.88454511 -0.8125 7.3125 C-0.98007812 8.12976563 -1.14765625 8.94703125 -1.3203125 9.7890625 C-1.44148437 10.41554688 -1.56265625 11.04203125 -1.6875 11.6875 C-2.6775 11.6875 -3.6675 11.6875 -4.6875 11.6875 C-4.93704005 10.25339632 -5.16142642 8.81489928 -5.375 7.375 C-5.50261719 6.57449219 -5.63023437 5.77398438 -5.76171875 4.94921875 C-5.6875 2.6875 -5.6875 2.6875 -4.375 0.875 C-2.6875 -0.3125 -2.6875 -0.3125 0 0 Z " fill="#303228" transform="translate(552.6875,542.3125)"/>
<path d="M0 0 C3.96 0 7.92 0 12 0 C12 5.94 12 11.88 12 18 C11.34 18.33 10.68 18.66 10 19 C8.76819751 12.84098757 9.26969092 7.21324498 10 1 C6.7 1 3.4 1 0 1 C0 0.67 0 0.34 0 0 Z " fill="#3F4341" transform="translate(444,493)"/>
<path d="M0 0 C3.30055507 2.20037005 4.73542724 3.20628173 6 7 C-3.9127789 5.1643002 -3.9127789 5.1643002 -8 2 C-8 1.34 -8 0.68 -8 0 C-5.0233079 -1.48834605 -3.18307201 -0.8113713 0 0 Z " fill="#34342F" transform="translate(499,479)"/>
<path d="M0 0 C4.49797113 1.68673918 8.72886302 3.81673892 13 6 C12.34 7.65 11.68 9.3 11 11 C10.01 10.34 9.02 9.68 8 9 C8 8.01 8 7.02 8 6 C6.68 6.33 5.36 6.66 4 7 C3.54625 6.34 3.0925 5.68 2.625 5 C2.08875 4.34 1.5525 3.68 1 3 C0.34 3 -0.32 3 -1 3 C-0.67 2.01 -0.34 1.02 0 0 Z " fill="#E6DECE" transform="translate(714,478)"/>
<path d="M0 0 C0.33 0.66 0.66 1.32 1 2 C2.65 2 4.3 2 6 2 C5.59007812 2.47050781 5.18015625 2.94101562 4.7578125 3.42578125 C4.21898437 4.04839844 3.68015625 4.67101562 3.125 5.3125 C2.59132813 5.92738281 2.05765625 6.54226563 1.5078125 7.17578125 C-0.1640447 9.13498212 -0.1640447 9.13498212 -2 12 C-3.60355101 8.49223216 -4.22036864 5.85645121 -4 2 C-2.68 1.34 -1.36 0.68 0 0 Z " fill="#EDE2C9" transform="translate(677,441)"/>
<path d="M0 0 C2.97 0 5.94 0 9 0 C9 0.66 9 1.32 9 2 C7.87851562 2.39832031 7.87851562 2.39832031 6.734375 2.8046875 C5.74953125 3.15789062 4.7646875 3.51109375 3.75 3.875 C2.77546875 4.22304688 1.8009375 4.57109375 0.796875 4.9296875 C-1.56294327 5.83274645 -3.76905116 6.82078418 -6 8 C-5.79375 7.401875 -5.5875 6.80375 -5.375 6.1875 C-4.69328085 3.71549154 -4.69328085 3.71549154 -7 1 C-4.69 1.33 -2.38 1.66 0 2 C0 1.34 0 0.68 0 0 Z " fill="#2B2D2B" transform="translate(679,425)"/>
<path d="M0 0 C2.86713058 1.09625581 4.28554239 2.35988985 6.125 4.8125 C5.875 7.5625 5.875 7.5625 5.125 9.8125 C4.795 8.8225 4.465 7.8325 4.125 6.8125 C3.135 6.8125 2.145 6.8125 1.125 6.8125 C0.795 6.1525 0.465 5.4925 0.125 4.8125 C-1.77033342 4.34726937 -1.77033342 4.34726937 -3.9375 4.1875 C-5.236875 4.06375 -6.53625 3.94 -7.875 3.8125 C-2.56730769 -0.25673077 -2.56730769 -0.25673077 0 0 Z " fill="#373931" transform="translate(951.875,497.1875)"/>
<path d="M0 0 C2.20665404 3.30998105 2.78262095 5.82021436 3.625 9.6875 C3.88539063 10.86699219 4.14578125 12.04648437 4.4140625 13.26171875 C4.60742188 14.16535156 4.80078125 15.06898438 5 16 C4.38125 15.814375 3.7625 15.62875 3.125 15.4375 C0.95839822 14.76313824 0.95839822 14.76313824 -1 16 C-1.33 13.03 -1.66 10.06 -2 7 C-1.01 6.67 -0.02 6.34 1 6 C0.67 4.02 0.34 2.04 0 0 Z " fill="#333331" transform="translate(875,458)"/>
<path d="M0 0 C1.32 0.66 2.64 1.32 4 2 C3.38125 2.0825 2.7625 2.165 2.125 2.25 C-0.16088794 2.80583476 -0.16088794 2.80583476 -1.1875 4.9375 C-1.455625 5.618125 -1.72375 6.29875 -2 7 C-2.33 7.66 -2.66 8.32 -3 9 C-2.93915355 11.1505762 -2.93915355 11.1505762 -2.625 13.5 C-2.53476563 14.2940625 -2.44453125 15.088125 -2.3515625 15.90625 C-2.09653096 18.05104576 -2.09653096 18.05104576 -1 20 C-2.32 19.67 -3.64 19.34 -5 19 C-5.05383848 16.54137599 -5.09359038 14.0839245 -5.125 11.625 C-5.14175781 10.92632812 -5.15851563 10.22765625 -5.17578125 9.5078125 C-5.19344267 7.67102514 -5.10303261 5.83398037 -5 4 C-4.34 3.34 -3.68 2.68 -3 2 C-2.67 2.33 -2.34 2.66 -2 3 C-1.34 2.01 -0.68 1.02 0 0 Z " fill="#2B2B27" transform="translate(1077,393)"/>
<path d="M0 0 C0.33 0 0.66 0 1 0 C2.33257403 10.55808656 2.33257403 10.55808656 1 15 C-0.32 15.33 -1.64 15.66 -3 16 C-3.45496035 10.23716896 -1.79099852 5.39431697 0 0 Z " fill="#36352E" transform="translate(565,458)"/>
<path d="M0 0 C1.32 0.33 2.64 0.66 4 1 C3.32829194 4.8063457 2.27253436 8.35206816 1 12 C0.67 11.34 0.34 10.68 0 10 C-0.66 10 -1.32 10 -2 10 C-1.34 11.65 -0.68 13.3 0 15 C-3 13 -3 13 -3.6875 9.875 C-3.8421875 8.451875 -3.8421875 8.451875 -4 7 C-3.01 7.33 -2.02 7.66 -1 8 C-0.67 7.34 -0.34 6.68 0 6 C-0.66 5.67 -1.32 5.34 -2 5 C-1.34 3.35 -0.68 1.7 0 0 Z " fill="#292C2A" transform="translate(524,548)"/>
<path d="M0 0 C0.99 0 1.98 0 3 0 C3 1.32 3 2.64 3 4 C3.66 4 4.32 4 5 4 C5 4.66 5 5.32 5 6 C5.66 6 6.32 6 7 6 C7 5.34 7 4.68 7 4 C7.99 4.33 8.98 4.66 10 5 C9.38722388 7.96175123 8.74627478 9.38058783 7 12 C0 3.71052632 0 3.71052632 0 0 Z " fill="#E9E0CA" transform="translate(997,485)"/>
<path d="M0 0 C0.99 0 1.98 0 3 0 C3.99 3.63 4.98 7.26 6 11 C4.02 11.99 2.04 12.98 0 14 C0 9.38 0 4.76 0 0 Z " fill="#2C312F" transform="translate(993,480)"/>
<path d="M0 0 C0.86625 0.5259375 0.86625 0.5259375 1.75 1.0625 C4.39565771 2.16485738 5.34543529 1.8848549 8 1 C8.66 1 9.32 1 10 1 C9.67 1.99 9.34 2.98 9 4 C8.34 4 7.68 4 7 4 C7 4.66 7 5.32 7 6 C6.34 6 5.68 6 5 6 C5 6.66 5 7.32 5 8 C4.01 8 3.02 8 2 8 C1.67 8.66 1.34 9.32 1 10 C1.33 8.02 1.66 6.04 2 4 C1.34 4 0.68 4 0 4 C0 2.68 0 1.36 0 0 Z " fill="#302B23" transform="translate(352,454)"/>
<path d="M0 0 C0.99 0.495 0.99 0.495 2 1 C2 1.66 2 2.32 2 3 C2.66 3 3.32 3 4 3 C4 2.34 4 1.68 4 1 C5.32 0.67 6.64 0.34 8 0 C8 3.75973885 7.03457593 4.45677629 4.5625 7.1875 C3.92441406 7.90292969 3.28632812 8.61835938 2.62890625 9.35546875 C2.09136719 9.89816406 1.55382812 10.44085938 1 11 C0.67 11 0.34 11 0 11 C0 7.37 0 3.74 0 0 Z " fill="#393930" transform="translate(759,428)"/>
<path d="M0 0 C-6.42430563 3.29743121 -12.97958411 5.3702606 -20 7 C-13.96119812 0.25075084 -8.61860854 -0.34474434 0 0 Z " fill="#383631" transform="translate(699,440)"/>
<path d="M0 0 C0.66 0.33 1.32 0.66 2 1 C2 1.99 2 2.98 2 4 C3.32 4.33 4.64 4.66 6 5 C5.34 5 4.68 5 4 5 C4.20625 5.598125 4.4125 6.19625 4.625 6.8125 C5 9 5 9 3 12 C2.34 10.68 1.68 9.36 1 8 C-0.32 8 -1.64 8 -3 8 C-2.25 2.25 -2.25 2.25 0 0 Z " fill="#E3D8C0" transform="translate(526,538)"/>
<path d="M0 0 C0.33 0.66 0.66 1.32 1 2 C1.66 2.33 2.32 2.66 3 3 C2.835 3.94875 2.67 4.8975 2.5 5.875 C1.9473365 8.80168901 1.9473365 8.80168901 2 11 C0.68 11 -0.64 11 -2 11 C-2.33 12.32 -2.66 13.64 -3 15 C-3.66 15 -4.32 15 -5 15 C-1.92482916 4.44191344 -1.92482916 4.44191344 0 0 Z " fill="#363531" transform="translate(838,501)"/>
<path d="M0 0 C3.63 1.65 7.26 3.3 11 5 C10.01 6.485 10.01 6.485 9 8 C5.375 8.1875 5.375 8.1875 2 8 C2.33 7.34 2.66 6.68 3 6 C1.68 5.34 0.36 4.68 -1 4 C-0.67 2.68 -0.34 1.36 0 0 Z " fill="#2D2D2B" transform="translate(482,494)"/>
<path d="M0 0 C5.75 -0.125 5.75 -0.125 8 1 C8 1.66 8 2.32 8 3 C13.28 3.33 18.56 3.66 24 4 C24 4.33 24 4.66 24 5 C7.29157175 5.55353075 7.29157175 5.55353075 -1 2 C-0.67 1.34 -0.34 0.68 0 0 Z " fill="#C6C0B0" transform="translate(912,498)"/>
<path d="M0 0 C2.64 0.66 5.28 1.32 8 2 C7.125 8.75 7.125 8.75 6 11 C5.34 11 4.68 11 4 11 C2.68 7.37 1.36 3.74 0 0 Z " fill="#34332A" transform="translate(826,468)"/>
<path d="M0 0 C1.27099045 3.81297136 0.45398157 5.3267834 -1 9 C-1.99 10.485 -1.99 10.485 -3 12 C-3.12375 12.639375 -3.2475 13.27875 -3.375 13.9375 C-4.22116958 16.72985962 -5.86733901 18.07372555 -8 20 C-8.66 19.67 -9.32 19.34 -10 19 C-9.50628906 18.02417969 -9.01257813 17.04835938 -8.50390625 16.04296875 C-7.85666469 14.75786595 -7.20953512 13.47270675 -6.5625 12.1875 C-6.23701172 11.54490234 -5.91152344 10.90230469 -5.57617188 10.24023438 C-4.20767324 7.51734534 -2.96516735 4.89550206 -2 2 C-1.34 2 -0.68 2 0 2 C0 1.34 0 0.68 0 0 Z " fill="#E1DCCD" transform="translate(966,456)"/>
<path d="M0 0 C2.49931612 3.79856379 2.2973378 7.67980838 2.25 12.0625 C2.25773438 12.78244141 2.26546875 13.50238281 2.2734375 14.24414062 C2.25937918 18.02934363 2.1475969 19.77860465 0 23 C-1.86224861 21.13775139 -1.12354714 18.57468825 -1.1328125 16.10546875 C-1 14 -1 14 -0.49609375 12.06640625 C0.10247089 9.57317245 0.09619559 7.31086508 0.0625 4.75 C0.05347656 3.85796875 0.04445313 2.9659375 0.03515625 2.046875 C0.02355469 1.37140625 0.01195312 0.6959375 0 0 Z " fill="#34352D" transform="translate(547,438)"/>
<path d="M0 0 C1.32 0.33 2.64 0.66 4 1 C2.44824219 2.98925781 2.44824219 2.98925781 0 5 C-3.29980469 5.36230469 -3.29980469 5.36230469 -7.171875 5.171875 C-7.8542926 5.14401917 -8.53671021 5.11616333 -9.23980713 5.08746338 C-11.41126868 4.99437142 -13.58002495 4.87261104 -15.75 4.75 C-17.22517377 4.68169593 -18.70043569 4.61526829 -20.17578125 4.55078125 C-23.78513008 4.38891822 -27.39261264 4.20132488 -31 4 C-31 3.67 -31 3.34 -31 3 C-20.77 3 -10.54 3 0 3 C0 2.01 0 1.02 0 0 Z " fill="#666760" transform="translate(471,412)"/>
<path d="M0 0 C0.99 0 1.98 0 3 0 C3.05382106 2.62527189 3.09358313 5.24944713 3.125 7.875 C3.14175781 8.62136719 3.15851562 9.36773437 3.17578125 10.13671875 C3.1933959 12.09194461 3.10320189 14.04742021 3 16 C2.34 16.66 1.68 17.32 1 18 C1 17.01 1 16.02 1 15 C0.34 14.67 -0.32 14.34 -1 14 C-0.67 13.67 -0.34 13.34 0 13 C0.07258946 10.81360547 0.08373783 8.62499611 0.0625 6.4375 C0.05347656 5.23996094 0.04445313 4.04242188 0.03515625 2.80859375 C0.02355469 1.88175781 0.01195312 0.95492188 0 0 Z " fill="#E0D9C8" transform="translate(563,442)"/>
<path d="M0 0 C1.34061543 0.30271961 2.67405895 0.63837971 4 1 C4.99 0.67 5.98 0.34 7 0 C9.1875 0.9375 9.1875 0.9375 11 2 C10.67 2.66 10.34 3.32 10 4 C7.49609375 4.6328125 7.49609375 4.6328125 4.4375 5.125 C2.91962891 5.37636719 2.91962891 5.37636719 1.37109375 5.6328125 C0.19740234 5.81457031 0.19740234 5.81457031 -1 6 C-1.625 4.125 -1.625 4.125 -2 2 C-1.34 1.34 -0.68 0.68 0 0 Z " fill="#2C2F30" transform="translate(910,394)"/>
<path d="M0 0 C0.99 0 1.98 0 3 0 C2.84152588 0.51208008 2.68305176 1.02416016 2.51977539 1.55175781 C1.8357732 4.77353987 1.77804763 7.8794827 1.68359375 11.171875 C1.66281265 11.8542926 1.64203156 12.53671021 1.62062073 13.23980713 C1.55547948 15.40977356 1.49640596 17.57985624 1.4375 19.75 C1.39428103 21.22527221 1.35066568 22.70053287 1.30664062 24.17578125 C1.19983482 27.78373166 1.09846847 31.39181133 1 35 C0.67 35 0.34 35 0 35 C0 23.45 0 11.9 0 0 Z " fill="#F4EFDA" transform="translate(1044,429)"/>
<path d="M0 0 C2.19597689 4.39195377 2.23618039 5.43564164 1 10 C-0.5625 12.375 -0.5625 12.375 -2 14 C-2.99 13.67 -3.98 13.34 -5 13 C-3.35 8.71 -1.7 4.42 0 0 Z " fill="#383B38" transform="translate(979,465)"/>
<path d="M0 0 C2 1 2 1 2.61889648 2.81933594 C3.22371138 6.28007049 3.10270093 9.74942684 3.0625 13.25 C3.05798828 13.99507813 3.05347656 14.74015625 3.04882812 15.5078125 C3.03709246 17.3385764 3.0191585 19.16929873 3 21 C2.67 21 2.34 21 2 21 C1.855625 20.236875 1.71125 19.47375 1.5625 18.6875 C1.0367406 15.91827092 1.0367406 15.91827092 0 13 C0 10.66666667 0 8.33333333 0 6 C-0.32483418 4.66457061 -0.6550855 3.33038449 -1 2 C-0.67 1.34 -0.34 0.68 0 0 Z " fill="#35352E" transform="translate(962,437)"/>
<path d="M0 0 C8 9.42857143 8 9.42857143 8 14 C7.01 14 6.02 14 5 14 C5 13.01 5 12.02 5 11 C4.35546875 10.76539063 3.7109375 10.53078125 3.046875 10.2890625 C1 9 1 9 0.390625 6.8359375 C0.34421875 6.02382813 0.2978125 5.21171875 0.25 4.375 C0.19328125 3.55773437 0.1365625 2.74046875 0.078125 1.8984375 C0.05234375 1.27195312 0.0265625 0.64546875 0 0 Z " fill="#E2DCC8" transform="translate(555,418)"/>
<path d="M0 0 C0.33 0 0.66 0 1 0 C2.07511878 4.39006837 2.3257941 7.04622243 0.0625 10.9375 C-0.618125 11.948125 -1.29875 12.95875 -2 14 C-2.99 14 -3.98 14 -5 14 C-3.45730076 9.27934033 -1.92205381 4.58335908 0 0 Z " fill="#E4DCCD" transform="translate(549,456)"/>
<path d="M0 0 C2.31 0.33 4.62 0.66 7 1 C4.375 4.875 4.375 4.875 1 6 C-0.20882096 8.00016466 -0.20882096 8.00016466 -1 10 C-1.66 9.67 -2.32 9.34 -3 9 C-2.01 6.03 -1.02 3.06 0 0 Z " fill="#282C2E" transform="translate(855,459)"/>
<path d="M0 0 C4.95 0 9.9 0 15 0 C15 0.33 15 0.66 15 1 C13.39602723 1.16852247 11.7918131 1.33474886 10.1875 1.5 C9.29417969 1.5928125 8.40085937 1.685625 7.48046875 1.78125 C5 2 5 2 2 2 C1.34 1.34 0.68 0.68 0 0 Z M1 3 C1.99 3.495 1.99 3.495 3 4 C2.67 9.94 2.34 15.88 2 22 C1.67 22 1.34 22 1 22 C1 15.73 1 9.46 1 3 Z " fill="#E7E0CD" transform="translate(1077,428)"/>
<path d="M0 0 C1.953125 0.7109375 1.953125 0.7109375 4 2 C4.609375 4.1640625 4.609375 4.1640625 4.75 6.625 C4.80671875 7.44226563 4.8634375 8.25953125 4.921875 9.1015625 C4.94765625 9.72804688 4.9734375 10.35453125 5 11 C4.01 11.33 3.02 11.66 2 12 C1.47026689 10.37787941 0.95146893 8.75218416 0.4375 7.125 C0.14746094 6.22007812 -0.14257812 5.31515625 -0.44140625 4.3828125 C-1 2 -1 2 0 0 Z " fill="#2E2F2B" transform="translate(978,425)"/>
<path d="M0 0 C1.75091019 0.08754551 3.50079551 0.19573373 5.25 0.3125 C6.22453125 0.37050781 7.1990625 0.42851562 8.203125 0.48828125 C11 1 11 1 15 4 C9.72 4 4.44 4 -1 4 C-0.67 2.68 -0.34 1.36 0 0 Z " fill="#30332D" transform="translate(630,424)"/>
<path d="M0 0 C0.99 0.33 1.98 0.66 3 1 C2.37619308 2.41719242 1.7508997 3.8337306 1.125 5.25 C0.77695312 6.03890625 0.42890625 6.8278125 0.0703125 7.640625 C-0.90413905 9.78868608 -1.92986429 11.89829202 -3 14 C-4.22413793 6.65517241 -4.22413793 6.65517241 -3.1875 3.625 C-2 2 -2 2 0 0 Z " fill="#343531" transform="translate(661,441)"/>
<path d="M0 0 C6.57142857 5 6.57142857 5 8 10 C6.68 10.33 5.36 10.66 4 11 C3.34 10.01 2.68 9.02 2 8 C2.66 8 3.32 8 4 8 C4 7.34 4 6.68 4 6 C2.68 5.67 1.36 5.34 0 5 C0 3.35 0 1.7 0 0 Z " fill="#383A30" transform="translate(934,475)"/>
<path d="M0 0 C0.66 0 1.32 0 2 0 C1.39915272 4.80677821 0.38277387 9.73340918 -2 14 C-2.99 14.33 -3.98 14.66 -5 15 C-5.125 12.125 -5.125 12.125 -5 9 C-4.34 8.34 -3.68 7.68 -3 7 C-2.29788106 5.34795544 -1.63028587 3.68076231 -1 2 C-0.67 1.34 -0.34 0.68 0 0 Z " fill="#30332F" transform="translate(848,428)"/>
<path d="M0 0 C2.86697492 1.28519565 4.97607712 2.57129254 7 5 C7 5.66 7 6.32 7 7 C1.25 8 1.25 8 -1 8 C-1.66 6.68 -2.32 5.36 -3 4 C-1.02 4.66 0.96 5.32 3 6 C3 5.34 3 4.68 3 4 C2.01 4 1.02 4 0 4 C0 2.68 0 1.36 0 0 Z " fill="#272B2D" transform="translate(957,504)"/>
<path d="M0 0 C0.33 0 0.66 0 1 0 C1 5.61 1 11.22 1 17 C-3.95 17 -8.9 17 -14 17 C-14 16.67 -14 16.34 -14 16 C-10.04 16 -6.08 16 -2 16 C-0.89485234 12.68455701 -0.67892369 9.79589889 -0.4375 6.3125 C-0.35371094 5.13300781 -0.26992187 3.95351563 -0.18359375 2.73828125 C-0.12300781 1.83464844 -0.06242187 0.93101562 0 0 Z " fill="#F7F0E1" transform="translate(1157,483)"/>
<path d="M0 0 C2.38564077 0.57584432 4.66682784 1.22227595 7 2 C7 2.66 7 3.32 7 4 C7.99 4.33 8.98 4.66 10 5 C9.67 6.32 9.34 7.64 9 9 C4.44984107 7.48328036 2.49942736 3.83108947 0 0 Z " fill="#313128" transform="translate(947,467)"/>
<path d="M0 0 C2.29576678 2.29576678 3.0638375 3.90346249 4 7 C3.68564441 10.37932259 3.42520546 11.57479454 1 14 C0.63659714 12.23103898 0.28459117 10.45973374 -0.0625 8.6875 C-0.25972656 7.70136719 -0.45695313 6.71523438 -0.66015625 5.69921875 C-1 3 -1 3 0 0 Z " fill="#2E2E28" transform="translate(819,491)"/>
<path d="M0 0 C-0.33 1.98 -0.66 3.96 -1 6 C-1.99 6 -2.98 6 -4 6 C-4.66 6.66 -5.32 7.32 -6 8 C-8 5 -8 5 -8 2 C-2.25 0 -2.25 0 0 0 Z " fill="#F8ECD7" transform="translate(849,472)"/>
<path d="M0 0 C0.99 0.33 1.98 0.66 3 1 C4.50524531 4.54377754 4.09752721 8.46706136 4.0625 12.25 C4.05347656 13.51328125 4.04445313 14.7765625 4.03515625 16.078125 C4.02355469 17.04234375 4.01195312 18.0065625 4 19 C3.67 19 3.34 19 3 19 C3 15.7 3 12.4 3 9 C2.34 9 1.68 9 1 9 C0.855625 8.236875 0.71125 7.47375 0.5625 6.6875 C0.0367406 3.91827092 0.0367406 3.91827092 -1 1 C-0.67 0.67 -0.34 0.34 0 0 Z " fill="#E0D8C6" transform="translate(978,439)"/>
<path d="M0 0 C0.99 0.33 1.98 0.66 3 1 C2.34 1 1.68 1 1 1 C1.33 2.65 1.66 4.3 2 6 C3.94999129 5.80528889 3.94999129 5.80528889 6 5 C7.28436734 3.0162233 7.28436734 3.0162233 8 1 C8 3.31 8 5.62 8 8 C4.69676014 9.10107995 3.29495231 8.86709271 0 8 C-0.33 7.67 -0.66 7.34 -1 7 C-0.71269945 4.66055264 -0.38063221 2.3260857 0 0 Z " fill="#3B3F42" transform="translate(666,391)"/>
<path d="M0 0 C0.99 0.33 1.98 0.66 3 1 C3 1.66 3 2.32 3 3 C5.64 3 8.28 3 11 3 C11 3.66 11 4.32 11 5 C14.3 5 17.6 5 21 5 C21 5.33 21 5.66 21 6 C13.40237976 6.38999191 7.15533979 5.60758587 0 3 C0 2.01 0 1.02 0 0 Z " fill="#C0BBAD" transform="translate(680,497)"/>
<path d="M0 0 C0.33 0.66 0.66 1.32 1 2 C1.99 2.33 2.98 2.66 4 3 C3.484375 3.103125 2.96875 3.20625 2.4375 3.3125 C-0.86026435 4.24263866 -3.86633332 5.61395512 -7 7 C-8.32 6.01 -9.64 5.02 -11 4 C-10.37351562 3.79503906 -9.74703125 3.59007812 -9.1015625 3.37890625 C-8.28429687 3.10949219 -7.46703125 2.84007812 -6.625 2.5625 C-5.81289063 2.29566406 -5.00078125 2.02882813 -4.1640625 1.75390625 C-1.98968201 1.04820271 -1.98968201 1.04820271 0 0 Z " fill="#353430" transform="translate(715,497)"/>
<path d="M0 0 C0.66 0.33 1.32 0.66 2 1 C1.67 1.99 1.34 2.98 1 4 C0.40985107 3.99476318 -0.18029785 3.98952637 -0.78833008 3.98413086 C-3.46304255 3.96333953 -6.13773801 3.95033299 -8.8125 3.9375 C-10.2056543 3.92493164 -10.2056543 3.92493164 -11.62695312 3.91210938 C-12.51962891 3.90888672 -13.41230469 3.90566406 -14.33203125 3.90234375 C-15.15421143 3.89710693 -15.9763916 3.89187012 -16.82348633 3.88647461 C-19.18172596 3.91258476 -19.18172596 3.91258476 -22 5 C-22.33 4.01 -22.66 3.02 -23 2 C-15.41 2 -7.82 2 0 2 C0 1.34 0 0.68 0 0 Z " fill="#51514B" transform="translate(512,475)"/>
<path d="M0 0 C1.32 0 2.64 0 4 0 C3.01 3.3 2.02 6.6 1 10 C0.34 9.67 -0.32 9.34 -1 9 C-1.09765625 2.84765625 -1.09765625 2.84765625 -1 1 C-0.67 0.67 -0.34 0.34 0 0 Z " fill="#2E302A" transform="translate(836,456)"/>
<path d="M0 0 C2 3 2 3 3 6 C1.35 6.66 -0.3 7.32 -2 8 C-1.67 8.99 -1.34 9.98 -1 11 C-1.66 11.99 -2.32 12.98 -3 14 C-4.07010304 11.23556715 -4.16283213 9.46148633 -3.17578125 6.6640625 C-2.16488321 4.41525773 -1.11596524 2.19840363 0 0 Z " fill="#43423B" transform="translate(865,434)"/>
<path d="M0 0 C0.33 0.66 0.66 1.32 1 2 C1.66 2 2.32 2 3 2 C3.33 1.34 3.66 0.68 4 0 C4.33 1.65 4.66 3.3 5 5 C0.05 5 -4.9 5 -10 5 C-10 4.67 -10 4.34 -10 4 C-6.97265625 3.75585938 -6.97265625 3.75585938 -3.9453125 3.51171875 C-1.60480784 3.12606964 -1.60480784 3.12606964 0 0 Z " fill="#2F342F" transform="translate(1087,423)"/>
<path d="M0 0 C0.99 0 1.98 0 3 0 C1.61735163 2.86867231 0.07851447 5.56024032 -1.625 8.25 C-2.07101562 8.95640625 -2.51703125 9.6628125 -2.9765625 10.390625 C-3.48316406 11.18726563 -3.48316406 11.18726563 -4 12 C-4.66 11.67 -5.32 11.34 -6 11 C-5.625 8.5625 -5.625 8.5625 -5 6 C-4.34 5.67 -3.68 5.34 -3 5 C-2.67 4.01 -2.34 3.02 -2 2 C-1.34 2 -0.68 2 0 2 C0 1.34 0 0.68 0 0 Z " fill="#31332C" transform="translate(885,414)"/>
<path d="M0 0 C2.31 0.33 4.62 0.66 7 1 C6.67 1.99 6.34 2.98 6 4 C5.67 3.67 5.34 3.34 5 3 C4.67 4.65 4.34 6.3 4 8 C2.02 6.68 0.04 5.36 -2 4 C-1.34 2.68 -0.68 1.36 0 0 Z " fill="#2C3331" transform="translate(960,402)"/>
<path d="M0 0 C2.18975773 3.28463659 2.99806563 6.20696275 4 10 C3.34 10.66 2.68 11.32 2 12 C1.01 11.34 0.02 10.68 -1 10 C-1.328125 7.87109375 -1.328125 7.87109375 -1.25 5.4375 C-1.23453125 4.63183594 -1.2190625 3.82617188 -1.203125 2.99609375 C-1 1 -1 1 0 0 Z " fill="#343430" transform="translate(658,474)"/>
<path d="M0 0 C0.99 0.66 1.98 1.32 3 2 C2.67 2.66 2.34 3.32 2 4 C-2.62 4 -7.24 4 -12 4 C-12 3.34 -12 2.68 -12 2 C-11.07767578 1.90912109 -11.07767578 1.90912109 -10.13671875 1.81640625 C-9.32847656 1.73261719 -8.52023437 1.64882813 -7.6875 1.5625 C-6.88699219 1.48128906 -6.08648438 1.40007812 -5.26171875 1.31640625 C-2.83912821 1.04734307 -2.83912821 1.04734307 0 0 Z " fill="#312E2E" transform="translate(867,424)"/>
<path d="M0 0 C1.22589844 0.15275391 1.22589844 0.15275391 2.4765625 0.30859375 C3.41628906 0.43427734 3.41628906 0.43427734 4.375 0.5625 C2.375 3.5625 2.375 3.5625 0.4296875 4.07421875 C-0.28960938 4.13222656 -1.00890625 4.19023437 -1.75 4.25 C-3.668125 4.4046875 -3.668125 4.4046875 -5.625 4.5625 C-5.955 3.2425 -6.285 1.9225 -6.625 0.5625 C-4.10446405 -0.69776798 -2.7707902 -0.35624445 0 0 Z " fill="#DED8C4" transform="translate(1085.625,394.4375)"/>
<path d="M0 0 C0.33 1.32 0.66 2.64 1 4 C1.61875 4.0825 2.2375 4.165 2.875 4.25 C5 5 5 5 6.125 7 C6.41375 7.66 6.7025 8.32 7 9 C7.66 9.33 8.32 9.66 9 10 C9 10.66 9 11.32 9 12 C7.68 12 6.36 12 5 12 C4.938125 11.38125 4.87625 10.7625 4.8125 10.125 C4.171081 7.72238859 4.171081 7.72238859 1.4375 6.75 C0.633125 6.5025 -0.17125 6.255 -1 6 C-1.042721 4.33388095 -1.04063832 2.66617115 -1 1 C-0.67 0.67 -0.34 0.34 0 0 Z " fill="#6C685E" transform="translate(523,541)"/>
<path d="M0 0 C0.66 0.33 1.32 0.66 2 1 C1.67 3.64 1.34 6.28 1 9 C-0.32 8.34 -1.64 7.68 -3 7 C-3 8.65 -3 10.3 -3 12 C-3.33 12 -3.66 12 -4 12 C-4.50423019 6.70558305 -3.18923033 4.18586481 0 0 Z " fill="#D9D3C1" transform="translate(1077,396)"/>
<path d="M0 0 C0.33 0.66 0.66 1.32 1 2 C0.0625 4.125 0.0625 4.125 -1 6 C-0.34 6.33 0.32 6.66 1 7 C-1.78823655 8.0326802 -2.8677274 8.04509293 -5.75 7.0625 C-6.4925 6.711875 -7.235 6.36125 -8 6 C-5.38485683 3.87961365 -2.80362384 1.86908256 0 0 Z " fill="#3B3935" transform="translate(1040,495)"/>
<path d="M0 0 C4.3177458 0.50797009 8.03302114 1.19682779 12 3 C11.67 3.66 11.34 4.32 11 5 C9.741875 4.87625 8.48375 4.7525 7.1875 4.625 C6.12595703 4.52058594 6.12595703 4.52058594 5.04296875 4.4140625 C3 4 3 4 0 2 C0 1.34 0 0.68 0 0 Z " fill="#E2D9CA" transform="translate(1007,497)"/>
<path d="M0 0 C1.6711528 5.51124859 -0.88624922 9.86660525 -3 15 C-3.66 15 -4.32 15 -5 15 C-4.43174347 9.45949887 -2.37113483 4.96284034 0 0 Z " fill="#3F3F37" transform="translate(897,429)"/>
<path d="M0 0 C2.31 0 4.62 0 7 0 C6.67 1.98 6.34 3.96 6 6 C3.69 5.01 1.38 4.02 -1 3 C-0.67 2.01 -0.34 1.02 0 0 Z " fill="#F2DEB9" transform="translate(553,546)"/>
<path d="M0 0 C0.99 0.66 1.98 1.32 3 2 C2.25 4.9375 2.25 4.9375 1 8 C-0.32 8.33 -1.64 8.66 -3 9 C-2.01 6.03 -1.02 3.06 0 0 Z " fill="#31342F" transform="translate(842,492)"/>
<path d="M0 0 C0.33 0.66 0.66 1.32 1 2 C0.01 3.485 0.01 3.485 -1 5 C-1.99 4.34 -2.98 3.68 -4 3 C-4.103125 3.639375 -4.20625 4.27875 -4.3125 4.9375 C-4.539375 5.618125 -4.76625 6.29875 -5 7 C-5.99 7.33 -6.98 7.66 -8 8 C-8.66 7.34 -9.32 6.68 -10 6 C-8.90398831 4.99106869 -7.79786082 3.99311775 -6.6875 3 C-6.07261719 2.443125 -5.45773437 1.88625 -4.82421875 1.3125 C-3 0 -3 0 0 0 Z " fill="#363732" transform="translate(726,490)"/>
<path d="M0 0 C0.66 0.99 1.32 1.98 2 3 C-0.47488039 6.71232059 -2.79180527 9.8987451 -6 13 C-6.66 12.67 -7.32 12.34 -8 12 C-4 6 -4 6 0 0 Z " fill="#535149" transform="translate(561,472)"/>
<path d="M0 0 C0 0.66 0 1.32 0 2 C1.32 2.33 2.64 2.66 4 3 C-0.62 3.33 -5.24 3.66 -10 4 C-4 -2 -4 -2 0 0 Z " fill="#252B28" transform="translate(1082,424)"/>
<path d="M0 0 C0.66 0 1.32 0 2 0 C2 0.99 2 1.98 2 3 C2.66 3 3.32 3 4 3 C4 3.66 4 4.32 4 5 C3.34 5 2.68 5 2 5 C1.34 6.32 0.68 7.64 0 9 C0 7.68 0 6.36 0 5 C-1.32 5 -2.64 5 -4 5 C-4 4.34 -4 3.68 -4 3 C-2.68 3 -1.36 3 0 3 C0 2.01 0 1.02 0 0 Z " fill="#AE9875" transform="translate(457,511)"/>
<path d="M0 0 C0.598125 0.309375 1.19625 0.61875 1.8125 0.9375 C4.08956772 2.10209704 4.08956772 2.10209704 7 3 C7 3.66 7 4.32 7 5 C7.66 5.33 8.32 5.66 9 6 C4.22423661 5.5317879 0.95523655 4.75668002 -3 2 C-2.01 1.34 -1.02 0.68 0 0 Z " fill="#D8D3C3" transform="translate(593,496)"/>
<path d="M0 0 C1.9375 1.25 1.9375 1.25 3.9375 4.25 C2.6175 4.25 1.2975 4.25 -0.0625 4.25 C-0.3925 4.91 -0.7225 5.57 -1.0625 6.25 C-1.35125 5.63125 -1.64 5.0125 -1.9375 4.375 C-2.99970042 2.11674235 -2.99970042 2.11674235 -5.0625 0.25 C-2.0625 -0.75 -2.0625 -0.75 0 0 Z " fill="#656255" transform="translate(537.0625,497.75)"/>
<path d="M0 0 C0 0.66 0 1.32 0 2 C-1.5778125 2.433125 -1.5778125 2.433125 -3.1875 2.875 C-6.22818711 3.77225193 -9.08712344 4.76423419 -12 6 C-12.33 5.01 -12.66 4.02 -13 3 C-4.57142857 -0.42857143 -4.57142857 -0.42857143 0 0 Z " fill="#E1DAC8" transform="translate(919,398)"/>
<path d="M0 0 C0.99 0.66 1.98 1.32 3 2 C1.25 7.75 1.25 7.75 -1 10 C-1.66 9.67 -2.32 9.34 -3 9 C-2.01 6.03 -1.02 3.06 0 0 Z " fill="#E6DFCB" transform="translate(845,476)"/>
<path d="M0 0 C6.75 2.75 6.75 2.75 9 5 C4.25 6.125 4.25 6.125 2 5 C0.96854629 3.69084721 -0.03542166 2.35917857 -1 1 C-0.67 0.67 -0.34 0.34 0 0 Z " fill="#EAE1D2" transform="translate(533,401)"/>
<path d="M0 0 C0.33 0.66 0.66 1.32 1 2 C1.66 2 2.32 2 3 2 C3 4.64 3 7.28 3 10 C2.01 10.33 1.02 10.66 0 11 C0 7.37 0 3.74 0 0 Z " fill="#232721" transform="translate(434,358)"/>
<path d="M0 0 C0.66 0 1.32 0 2 0 C2.67119549 1.4562545 3.33681807 2.91507867 4 4.375 C4.556875 5.59316406 4.556875 5.59316406 5.125 6.8359375 C6 9 6 9 6 11 C4.68 10.67 3.36 10.34 2 10 C2.33 8.35 2.66 6.7 3 5 C2.34 5 1.68 5 1 5 C0.67 3.35 0.34 1.7 0 0 Z " fill="#46443C" transform="translate(802,453)"/>
<path d="M0 0 C0.66 0 1.32 0 2 0 C1.67 2.97 1.34 5.94 1 9 C1.99 9.33 2.98 9.66 4 10 C2.35 10 0.7 10 -1 10 C-1.02689216 8.52093108 -1.04634621 7.04172517 -1.0625 5.5625 C-1.07410156 4.73878906 -1.08570313 3.91507812 -1.09765625 3.06640625 C-1 1 -1 1 0 0 Z " fill="#F7EDD7" transform="translate(673,450)"/>
<path d="M0 0 C0.33 0.66 0.66 1.32 1 2 C1.99 1.67 2.98 1.34 4 1 C5.35439668 3.70879335 5.06501451 6.00933268 5 9 C4.01 9.495 4.01 9.495 3 10 C0 3.375 0 3.375 0 0 Z " fill="#32322E" transform="translate(811,428)"/>
<path d="M0 0 C0 0.99 0 1.98 0 3 C-4.62 2.34 -9.24 1.68 -14 1 C-14 0.67 -14 0.34 -14 0 C-8.97703996 -1.13016601 -5.02125926 -0.77916092 0 0 Z " fill="#33342D" transform="translate(707,425)"/>
<path d="M0 0 C2.64 1.98 5.28 3.96 8 6 C7.67 6.99 7.34 7.98 7 9 C6.01 8.67 5.02 8.34 4 8 C4 7.34 4 6.68 4 6 C3.34 5.67 2.68 5.34 2 5 C1.27840576 3.35636866 0.60648579 1.68949614 0 0 Z " fill="#E4DFCE" transform="translate(960,407)"/>
<path d="M0 0 C0.66 0 1.32 0 2 0 C0.79157144 4.43090471 -0.51668565 6.98112756 -4 10 C-3.43697042 6.05879291 -2.3208055 3.2491277 0 0 Z " fill="#E6E1CE" transform="translate(832,512)"/>
<path d="M0 0 C0.66 0 1.32 0 2 0 C2 0.66 2 1.32 2 2 C3.32 1.67 4.64 1.34 6 1 C6 1.99 6 2.98 6 4 C5.01 4.66 4.02 5.32 3 6 C3 5.01 3 4.02 3 3 C2.34 3 1.68 3 1 3 C0.67 3.99 0.34 4.98 0 6 C0 5.34 0 4.68 0 4 C-0.66 4 -1.32 4 -2 4 C-2 3.34 -2 2.68 -2 2 C-1.34 2 -0.68 2 0 2 C0 1.34 0 0.68 0 0 Z " fill="#EBE0C7" transform="translate(547,481)"/>
<path d="M0 0 C0.99 0.99 1.98 1.98 3 3 C1.37660195 4.70884005 -0.29319053 6.37446717 -2 8 C-2.66 8 -3.32 8 -4 8 C-3.40138258 5.64828869 -2.73075648 3.3140622 -2 1 C-1.34 0.67 -0.68 0.34 0 0 Z " fill="#31312F" transform="translate(668,432)"/>
<path d="M0 0 C0.66 1.32 1.32 2.64 2 4 C1.34 4 0.68 4 0 4 C0 5.65 0 7.3 0 9 C-0.66 9 -1.32 9 -2 9 C-2.66 7.02 -3.32 5.04 -4 3 C-2.68 2.01 -1.36 1.02 0 0 Z " fill="#2C2C29" transform="translate(565,424)"/>
<path d="M0 0 C1.99097846 2.98646769 2.94124926 5.59687262 4 9 C2.68 9.33 1.36 9.66 0 10 C-0.66 8.02 -1.32 6.04 -2 4 C-1.34 4 -0.68 4 0 4 C0 2.68 0 1.36 0 0 Z " fill="#252E33" transform="translate(542,536)"/>
<path d="M0 0 C2.88575819 0.39803561 3.82189513 0.79009069 5.75 3.0625 C6.1625 3.701875 6.575 4.34125 7 5 C6.34 5.66 5.68 6.32 5 7 C4.01 6.67 3.02 6.34 2 6 C0.8125 2.9375 0.8125 2.9375 0 0 Z " fill="#5A574F" transform="translate(538,502)"/>
<path d="M0 0 C-1.90598443 2.43542455 -3.00596275 3.00158196 -6.0625 3.8125 C-7.5165625 3.9053125 -7.5165625 3.9053125 -9 4 C-9.66 3.34 -10.32 2.68 -11 2 C-9.54494642 1.47007308 -8.08581873 0.9513211 -6.625 0.4375 C-5.81289063 0.14746094 -5.00078125 -0.14257812 -4.1640625 -0.44140625 C-2 -1 -2 -1 0 0 Z " fill="#E8DFCC" transform="translate(949,497)"/>
<path d="M0 0 C0.66 0.66 1.32 1.32 2 2 C2.99 2 3.98 2 5 2 C4.3125 3.9375 4.3125 3.9375 3 6 C0.375 6.75 0.375 6.75 -2 7 C-1.34 4.69 -0.68 2.38 0 0 Z " fill="#333532" transform="translate(858,451)"/>
<path d="M0 0 C0.99 0.33 1.98 0.66 3 1 C4.2676439 3.73030993 4.04311598 4.87352646 3.0625 7.75 C2.711875 8.4925 2.36125 9.235 2 10 C0.68 8.35 -0.64 6.7 -2 5 C-1.34 5 -0.68 5 0 5 C0 3.68 0 2.36 0 1 C0 0.67 0 0.34 0 0 Z " fill="#2C302E" transform="translate(724,433)"/>
<path d="M0 0 C4.8 2.46153846 4.8 2.46153846 5.8125 5.1875 C5.874375 5.785625 5.93625 6.38375 6 7 C5.01 7.33 4.02 7.66 3 8 C1.02 4.535 1.02 4.535 -1 1 C-0.67 0.67 -0.34 0.34 0 0 Z " fill="#E4DFC7" transform="translate(542,425)"/>
<path d="M0 0 C2.1875 0.3125 2.1875 0.3125 4 1 C4 1.66 4 2.32 4 3 C5.32 3.33 6.64 3.66 8 4 C8 4.66 8 5.32 8 6 C4.37 5.01 0.74 4.02 -3 3 C-2.01 2.01 -1.02 1.02 0 0 Z " fill="#494A47" transform="translate(944,396)"/>
<path d="M0 0 C0.66 0.33 1.32 0.66 2 1 C1.67 4.63 1.34 8.26 1 12 C0.01 12 -0.98 12 -2 12 C-1.67 11.67 -1.34 11.34 -1 11 C-0.95372155 9.33397597 -0.96213099 7.66623639 -1 6 C-1.03786901 4.33376361 -1.04627845 2.66602403 -1 1 C-0.67 0.67 -0.34 0.34 0 0 Z " fill="#3E4038" transform="translate(533,549)"/>
<path d="M0 0 C0.33 0.99 0.66 1.98 1 3 C-2.1964086 4.06546953 -4.65747276 4.07427838 -8 4 C-7.67 3.01 -7.34 2.02 -7 1 C-4.53721199 -0.231394 -2.7204945 -0.07159196 0 0 Z " fill="#D9C098" transform="translate(560,543)"/>
<path d="M0 0 C0 1.32 0 2.64 0 4 C-1.65 4.33 -3.3 4.66 -5 5 C-5 4.34 -5 3.68 -5 3 C-5.99 3 -6.98 3 -8 3 C-8 2.34 -8 1.68 -8 1 C-5.23735711 0.40267181 -2.83967231 0 0 0 Z " fill="#F8E9C8" transform="translate(535,540)"/>
<path d="M0 0 C0 0.66 0 1.32 0 2 C-5.34629602 3.0024305 -9.62374766 2.84888195 -15 2 C-15 1.67 -15 1.34 -15 1 C-13.25021843 0.83105557 -11.50016388 0.66493691 -9.75 0.5 C-8.77546875 0.4071875 -7.8009375 0.314375 -6.796875 0.21875 C-4.53697847 0.04199832 -2.26679807 0 0 0 Z " fill="#57554D" transform="translate(617,501)"/>
<path d="M0 0 C2.79872437 2.52788007 4.45773019 4.20411134 5 8 C4.01 8 3.02 8 2 8 C0.23537317 4.91190305 0 3.76687864 0 0 Z " fill="#474740" transform="translate(555,490)"/>
<path d="M0 0 C3 2 3 2 3.6875 3.9375 C4 6 4 6 4 9 C3.34 9 2.68 9 2 9 C2 8.34 2 7.68 2 7 C1.34 7 0.68 7 0 7 C-0.38133299 5.0085944 -0.71325582 3.00720923 -1 1 C-0.67 0.67 -0.34 0.34 0 0 Z " fill="#2F3437" transform="translate(970,482)"/>
<path d="M0 0 C0.33 0.66 0.66 1.32 1 2 C1.66 2 2.32 2 3 2 C2.625 3.9375 2.625 3.9375 2 6 C1.01 6.495 1.01 6.495 0 7 C-0.66 6.67 -1.32 6.34 -2 6 C-1.125 1.125 -1.125 1.125 0 0 Z " fill="#EEE6D3" transform="translate(971,474)"/>
<path d="M0 0 C2.4294516 3.6441774 2.16179575 5.71241272 2 10 C1.01 10.33 0.02 10.66 -1 11 C-1.33 9.68 -1.66 8.36 -2 7 C-1.01 6.67 -0.02 6.34 1 6 C0.67 4.02 0.34 2.04 0 0 Z " fill="#3D3C38" transform="translate(875,458)"/>
<path d="M0 0 C2.475 0.495 2.475 0.495 5 1 C5.99 3.97 6.98 6.94 8 10 C7.34 10 6.68 10 6 10 C5.566875 8.865625 5.13375 7.73125 4.6875 6.5625 C3.8521875 4.7990625 3.8521875 4.7990625 3 3 C2.01 2.67 1.02 2.34 0 2 C0 1.34 0 0.68 0 0 Z " fill="#3A3E3E" transform="translate(416,434)"/>
<path d="M0 0 C0.33 0.66 0.66 1.32 1 2 C3.02463255 2.65213292 3.02463255 2.65213292 5 3 C5.33 4.32 5.66 5.64 6 7 C5.01 7.33 4.02 7.66 3 8 C1.02 4.535 1.02 4.535 -1 1 C-0.67 0.67 -0.34 0.34 0 0 Z " fill="#E6DDC8" transform="translate(958,425)"/>
<path d="M0 0 C2.31 0.33 4.62 0.66 7 1 C6.34 2.32 5.68 3.64 5 5 C3.02 4.34 1.04 3.68 -1 3 C-0.67 2.01 -0.34 1.02 0 0 Z " fill="#242C2D" transform="translate(569,395)"/>
<path d="M0 0 C1.32 0 2.64 0 4 0 C3.75 1.875 3.75 1.875 3 4 C0.9375 5.25 0.9375 5.25 -1 6 C-0.67 4.02 -0.34 2.04 0 0 Z " fill="#E6DEC9" transform="translate(531,545)"/>
<path d="M0 0 C-0.66 1.98 -1.32 3.96 -2 6 C-2.2784375 5.0409375 -2.2784375 5.0409375 -2.5625 4.0625 C-3.94246056 1.57873787 -3.94246056 1.57873787 -7.625 1.25 C-8.73875 1.1675 -9.8525 1.085 -11 1 C-11 0.67 -11 0.34 -11 0 C-3.375 -1.125 -3.375 -1.125 0 0 Z " fill="#4A4B46" transform="translate(541,537)"/>
<path d="M0 0 C0.99 0.33 1.98 0.66 3 1 C2.67 2.32 2.34 3.64 2 5 C0.1875 5.6875 0.1875 5.6875 -2 6 C-3.75 4.5625 -3.75 4.5625 -5 3 C-4.360625 2.87625 -3.72125 2.7525 -3.0625 2.625 C-2.0415625 2.315625 -2.0415625 2.315625 -1 2 C-0.67 1.34 -0.34 0.68 0 0 Z " fill="#2E2618" transform="translate(459,516)"/>
<path d="M0 0 C0 0.66 0 1.32 0 2 C-2.75 3.1875 -2.75 3.1875 -6 4 C-8.375 2.625 -8.375 2.625 -10 1 C-6.59437148 0.22157062 -3.49234244 -0.09978121 0 0 Z " fill="#EAE3CB" transform="translate(621,497)"/>
<path d="M0 0 C2.3125 0.125 2.3125 0.125 5 1 C6.8125 4.0625 6.8125 4.0625 8 7 C7.01 7 6.02 7 5 7 C0 1.53488372 0 1.53488372 0 0 Z " fill="#E6E1D0" transform="translate(583,489)"/>
<path d="M0 0 C0.33 0.66 0.66 1.32 1 2 C1.66 2.33 2.32 2.66 3 3 C2.34 4.98 1.68 6.96 1 9 C0.67 8.34 0.34 7.68 0 7 C-0.66 7 -1.32 7 -2 7 C-1.34 4.69 -0.68 2.38 0 0 Z " fill="#353833" transform="translate(845,484)"/>
<path d="M0 0 C1.9375 0.6875 1.9375 0.6875 4 2 C4.75 4.625 4.75 4.625 5 7 C3.35 7 1.7 7 0 7 C0 4.66666667 0 2.33333333 0 0 Z " fill="#373834" transform="translate(467,481)"/>
<path d="M0 0 C1.32 0 2.64 0 4 0 C4.33 0.99 4.66 1.98 5 3 C2.525 4.485 2.525 4.485 0 6 C-0.38218767 4.34385343 -0.71395102 2.67542976 -1 1 C-0.67 0.67 -0.34 0.34 0 0 Z " fill="#373936" transform="translate(1033,481)"/>
<path d="M0 0 C0.99 0.33 1.98 0.66 3 1 C3 1.99 3 2.98 3 4 C2.01 4.495 2.01 4.495 1 5 C0.67 5.99 0.34 6.98 0 8 C-0.66 8 -1.32 8 -2 8 C-1.125 2.25 -1.125 2.25 0 0 Z " fill="#38392F" transform="translate(762,452)"/>
<path d="M0 0 C2 3 2 3 1.625 6.1875 C1.41875 7.115625 1.2125 8.04375 1 9 C0.34 9 -0.32 9 -1 9 C-1.80967438 6.08517222 -2.21845993 4.53886783 -1.0625 1.6875 C-0.711875 1.130625 -0.36125 0.57375 0 0 Z " fill="#E2DEC7" transform="translate(661,447)"/>
<path d="M0 0 C0.99 0 1.98 0 3 0 C1.125 4.75 1.125 4.75 0 7 C-0.66 6.67 -1.32 6.34 -2 6 C-2 2 -2 2 0 0 Z " fill="#F5EBDB" transform="translate(670,435)"/>
<path d="M0 0 C0.99 0.33 1.98 0.66 3 1 C2.34 3.97 1.68 6.94 1 10 C0.67 8.68 0.34 7.36 0 6 C-0.99 6.495 -0.99 6.495 -2 7 C-1.67 5.68 -1.34 4.36 -1 3 C-0.34 3 0.32 3 1 3 C0.67 2.01 0.34 1.02 0 0 Z " fill="#868375" transform="translate(461,424)"/>
<path d="M0 0 C0.8125 1.6875 0.8125 1.6875 1 4 C-1.4375 6.75 -1.4375 6.75 -4 9 C-4.33 8.34 -4.66 7.68 -5 7 C-3.56742037 4.27127689 -2.18277634 2.18277634 0 0 Z " fill="#353732" transform="translate(1094,411)"/>
<path d="M0 0 C1.65 0.33 3.3 0.66 5 1 C5 1.66 5 2.32 5 3 C3.68 3 2.36 3 1 3 C0.67 4.32 0.34 5.64 0 7 C-0.66 7 -1.32 7 -2 7 C-1.34 4.69 -0.68 2.38 0 0 Z " fill="#2D2F2A" transform="translate(835,509)"/>
<path d="M0 0 C3.16115776 1.36983503 3.9927092 1.9890638 6 5 C5.34 5 4.68 5 4 5 C3.67 5.66 3.34 6.32 3 7 C0 3.375 0 3.375 0 0 Z " fill="#393835" transform="translate(883,481)"/>
<path d="M0 0 C2.31 0.33 4.62 0.66 7 1 C7.33 2.65 7.66 4.3 8 6 C1.125 2.25 1.125 2.25 0 0 Z " fill="#3E413C" transform="translate(902,476)"/>
<path d="M0 0 C2.46278801 2.46278801 2.99771255 4.70676982 4 8 C3.01 8.33 2.02 8.66 1 9 C-0.61949011 6.42786866 -1.04408751 5.32330841 -0.625 2.25 C-0.41875 1.5075 -0.2125 0.765 0 0 Z " fill="#3B3D35" transform="translate(597,473)"/>
<path d="M0 0 C0.99 0.33 1.98 0.66 3 1 C3.33 3.31 3.66 5.62 4 8 C3.34 8 2.68 8 2 8 C1.67 8.66 1.34 9.32 1 10 C1.33 8.02 1.66 6.04 2 4 C1.34 4 0.68 4 0 4 C0 2.68 0 1.36 0 0 Z " fill="#27241B" transform="translate(352,454)"/>
<path d="M0 0 C6.0546875 -0.1953125 6.0546875 -0.1953125 8 0 C8.66 0.66 9.32 1.32 10 2 C8.375 3.125 8.375 3.125 6 4 C2.75 3.125 2.75 3.125 0 2 C0 1.34 0 0.68 0 0 Z " fill="#262C2E" transform="translate(778,444)"/>
<path d="M0 0 C2.35964273 0.40683495 3.85934088 0.89814339 5.8125 2.3125 C7 4 7 4 6.6875 6.1875 C6.460625 6.785625 6.23375 7.38375 6 8 C5.5875 7.175 5.175 6.35 4.75 5.5 C4.1725 4.675 3.595 3.85 3 3 C1.68 3 0.36 3 -1 3 C-0.67 2.01 -0.34 1.02 0 0 Z " fill="#F3EBDB" transform="translate(715,434)"/>
<path d="M0 0 C0.99 0 1.98 0 3 0 C2.67 1.32 2.34 2.64 2 4 C2.99 4 3.98 4 5 4 C4.67 4.66 4.34 5.32 4 6 C4 6.99 4 7.98 4 9 C0.06153846 5.67692308 0.06153846 5.67692308 -0.25 2.25 C-0.1675 1.5075 -0.085 0.765 0 0 Z " fill="#353835" transform="translate(967,408)"/>
<path d="M0 0 C0.33 0.66 0.66 1.32 1 2 C1.66 2 2.32 2 3 2 C1.95125002 4.62187494 1.35068687 5.79371361 -1.125 7.25 C-1.74375 7.4975 -2.3625 7.745 -3 8 C-2.5359375 7.13375 -2.5359375 7.13375 -2.0625 6.25 C-1.07416636 4.15705816 -0.4831387 2.25464725 0 0 Z " fill="#24231F" transform="translate(563,542)"/>
<path d="M0 0 C0.99 0.33 1.98 0.66 3 1 C3 2.65 3 4.3 3 6 C2.67 5.34 2.34 4.68 2 4 C0.02 4 -1.96 4 -4 4 C-3.67 3.34 -3.34 2.68 -3 2 C-2.01 2 -1.02 2 0 2 C0 1.34 0 0.68 0 0 Z " fill="#EADCC2" transform="translate(558,539)"/>
<path d="M0 0 C3.3 0 6.6 0 10 0 C6.55549263 2.29633824 4.06187717 2.54016485 0 3 C0 2.01 0 1.02 0 0 Z " fill="#25292C" transform="translate(808,531)"/>
<path d="M0 0 C0.33 0.66 0.66 1.32 1 2 C2.65 1.34 4.3 0.68 6 0 C4.35 1.98 2.7 3.96 1 6 C0.34 5.67 -0.32 5.34 -1 5 C-0.67 3.35 -0.34 1.7 0 0 Z " fill="#F2ECDD" transform="translate(964,504)"/>
<path d="M0 0 C2.31 0.66 4.62 1.32 7 2 C6.01 3.485 6.01 3.485 5 5 C3.35 4.67 1.7 4.34 0 4 C0 2.68 0 1.36 0 0 Z " fill="#32322A" transform="translate(905,498)"/>
<path d="M0 0 C0.33 1.32 0.66 2.64 1 4 C-1.97 3.67 -4.94 3.34 -8 3 C-3.5 0 -3.5 0 0 0 Z " fill="#E4DCC9" transform="translate(504,498)"/>
<path d="M0 0 C2.86724686 0.57344937 3.8614515 0.8614515 6 3 C6 3.66 6 4.32 6 5 C4.35 4.67 2.7 4.34 1 4 C0.67 2.68 0.34 1.36 0 0 Z " fill="#2A2B2C" transform="translate(898,495)"/>
<path d="M0 0 C1.32 0 2.64 0 4 0 C4.33 1.32 4.66 2.64 5 4 C4.01 4.495 4.01 4.495 3 5 C0.375 3.5625 0.375 3.5625 -2 2 C-1.34 1.34 -0.68 0.68 0 0 Z " fill="#E3DCCA" transform="translate(898,491)"/>
<path d="M0 0 C0.99 0.66 1.98 1.32 3 2 C3 2.99 3 3.98 3 5 C1.35 5.33 -0.3 5.66 -2 6 C-2 4.68 -2 3.36 -2 2 C-1.34 2 -0.68 2 0 2 C0 1.34 0 0.68 0 0 Z " fill="#62594E" transform="translate(523,480)"/>
<path d="M0 0 C0.99 0 1.98 0 3 0 C3 0.99 3 1.98 3 3 C2.34 3 1.68 3 1 3 C1 6.63 1 10.26 1 14 C0.67 14 0.34 14 0 14 C0 9.38 0 4.76 0 0 Z " fill="#F2EEDA" transform="translate(580,429)"/>
<path d="M0 0 C1.98 0.99 1.98 0.99 4 2 C3.67 3.65 3.34 5.3 3 7 C2.34 7 1.68 7 1 7 C0.67 4.69 0.34 2.38 0 0 Z " fill="#F0E8D7" transform="translate(962,431)"/>
<path d="M0 0 C1.65 0.33 3.3 0.66 5 1 C4.34 2.65 3.68 4.3 3 6 C2.34 6 1.68 6 1 6 C1 5.34 1 4.68 1 4 C0.34 4 -0.32 4 -1 4 C-0.67 2.68 -0.34 1.36 0 0 Z " fill="#252A2D" transform="translate(811,424)"/>
<path d="M0 0 C0.66 0 1.32 0 2 0 C2 0.66 2 1.32 2 2 C2.66 2 3.32 2 4 2 C4 2.66 4 3.32 4 4 C3.34 4 2.68 4 2 4 C2 4.66 2 5.32 2 6 C1.34 6 0.68 6 0 6 C0 5.34 0 4.68 0 4 C-0.66 4 -1.32 4 -2 4 C-2 3.34 -2 2.68 -2 2 C-1.34 2 -0.68 2 0 2 C0 1.34 0 0.68 0 0 Z " fill="#9A856D" transform="translate(700,372)"/>
<path d="M0 0 C0.99 0.33 1.98 0.66 3 1 C3.33 1.99 3.66 2.98 4 4 C1.625 4.625 1.625 4.625 -1 5 C-1.66 4.34 -2.32 3.68 -3 3 C-2.34 3 -1.68 3 -1 3 C-0.67 2.01 -0.34 1.02 0 0 Z " fill="#6D6359" transform="translate(598,555)"/>
<path d="M0 0 C-1 3 -1 3 -3 5 C-4.32 5 -5.64 5 -7 5 C-6.67 3.68 -6.34 2.36 -6 1 C-5.34 1 -4.68 1 -4 1 C-2 0 -2 0 0 0 Z " fill="#312F29" transform="translate(566,547)"/>
<path d="M0 0 C1.0013988 3.00419641 1.51421457 5.87709365 2 9 C0.35 7.68 -1.3 6.36 -3 5 C-1.125 1.125 -1.125 1.125 0 0 Z " fill="#5B5648" transform="translate(552,485)"/>
<path d="M0 0 C0.99 0 1.98 0 3 0 C3.66 1.98 4.32 3.96 5 6 C4.01 6.33 3.02 6.66 2 7 C1.34 4.69 0.68 2.38 0 0 Z " fill="#363630" transform="translate(808,470)"/>
<path d="M0 0 C0.66 0.33 1.32 0.66 2 1 C2 2.66666667 2 4.33333333 2 6 C1.01 6 0.02 6 -1 6 C-1.66 4.68 -2.32 3.36 -3 2 C-2.01 1.34 -1.02 0.68 0 0 Z " fill="#FCF0DA" transform="translate(555,472)"/>
<path d="M0 0 C0.99 0 1.98 0 3 0 C3 0.99 3 1.98 3 3 C3.66 3.33 4.32 3.66 5 4 C3.68 4.33 2.36 4.66 1 5 C0.67 3.35 0.34 1.7 0 0 Z M5 0 C5.66 0.66 6.32 1.32 7 2 C6.01 2.495 6.01 2.495 5 3 C5 2.01 5 1.02 5 0 Z " fill="#2F3538" transform="translate(513,464)"/>
<path d="M0 0 C0.33 0 0.66 0 1 0 C1 3.96 1 7.92 1 12 C-2 8 -2 8 -2 6 C-1.34 6 -0.68 6 0 6 C0 4.02 0 2.04 0 0 Z " fill="#F9F1DC" transform="translate(980,448)"/>
<path d="M0 0 C0.66 1.32 1.32 2.64 2 4 C1.02149805 5.02104551 0.02019573 6.0206121 -1 7 C-1.33 7 -1.66 7 -2 7 C-2.33 5.02 -2.66 3.04 -3 1 C-2.01 0.67 -1.02 0.34 0 0 Z " fill="#343736" transform="translate(798,441)"/>
<path d="M0 0 C2.97 0 5.94 0 9 0 C7.68 1.32 6.36 2.64 5 4 C4.34 3.67 3.68 3.34 3 3 C3 2.34 3 1.68 3 1 C2.01 0.67 1.02 0.34 0 0 Z " fill="#2C2E2C" transform="translate(611,392)"/>
<path d="M0 0 C2.97 0.495 2.97 0.495 6 1 C6 1.99 6 2.98 6 4 C5.01 4.33 4.02 4.66 3 5 C2.01 3.35 1.02 1.7 0 0 Z " fill="#23221F" transform="translate(599,554)"/>
<path d="M0 0 C0.33 0.99 0.66 1.98 1 3 C0.01 4.485 0.01 4.485 -1 6 C-4.125 6.1875 -4.125 6.1875 -7 6 C-5.62209707 3.24419414 -3.62850007 2.51138754 -1 1 C-0.67 0.67 -0.34 0.34 0 0 Z " fill="#434138" transform="translate(828,522)"/>
<path d="M0 0 C1.65 1.65 3.3 3.3 5 5 C4.67 5.66 4.34 6.32 4 7 C3.01 6.67 2.02 6.34 1 6 C1 5.34 1 4.68 1 4 C0.34 4 -0.32 4 -1 4 C-0.67 2.68 -0.34 1.36 0 0 Z " fill="#35352A" transform="translate(999,491)"/>
<path d="M0 0 C2.5 2.3125 2.5 2.3125 5 5 C5 5.99 5 6.98 5 8 C2.5 6.8125 2.5 6.8125 0 5 C-0.3125 2.3125 -0.3125 2.3125 0 0 Z " fill="#DAD2C2" transform="translate(550,490)"/>
<path d="M0 0 C0.66 0.99 1.32 1.98 2 3 C1.01 3.99 0.02 4.98 -1 6 C-1.99 5.67 -2.98 5.34 -4 5 C-2.68 3.35 -1.36 1.7 0 0 Z " fill="#29252A" transform="translate(969,484)"/>
<path d="M0 0 C1.32 0 2.64 0 4 0 C3.67 1.32 3.34 2.64 3 4 C1.68 4 0.36 4 -1 4 C-0.67 2.68 -0.34 1.36 0 0 Z " fill="#272725" transform="translate(613,483)"/>
<path d="M0 0 C0.33 0 0.66 0 1 0 C1.33 2.64 1.66 5.28 2 8 C0.68 8.33 -0.64 8.66 -2 9 C-1.34 6.03 -0.68 3.06 0 0 Z " fill="#DFDAC4" transform="translate(628,470)"/>
<path d="M0 0 C1.5625 1.25 1.5625 1.25 3 3 C2.6875 5.1875 2.6875 5.1875 2 7 C1.01 6.34 0.02 5.68 -1 5 C-0.67 3.35 -0.34 1.7 0 0 Z " fill="#30322D" transform="translate(851,469)"/>
<path d="M0 0 C2.29013653 3.4352048 2.17842973 4.985331 2 9 C1.01 8.34 0.02 7.68 -1 7 C-0.67 4.69 -0.34 2.38 0 0 Z " fill="#ECE3C9" transform="translate(477,462)"/>
<path d="M0 0 C0.66 0 1.32 0 2 0 C1.67 2.64 1.34 5.28 1 8 C0.01 7.67 -0.98 7.34 -2 7 C-1.34 4.69 -0.68 2.38 0 0 Z " fill="#373A34" transform="translate(854,461)"/>
<path d="M0 0 C0.33 0.66 0.66 1.32 1 2 C1.66 2 2.32 2 3 2 C2.67 4.31 2.34 6.62 2 9 C0 8 0 8 -0.6875 6.1875 C-1.02688538 3.81180233 -0.72856341 2.26664171 0 0 Z " fill="#FAEED5" transform="translate(474,460)"/>
<path d="M0 0 C1.65 1.32 3.3 2.64 5 4 C4.01 4 3.02 4 2 4 C1.67 4.99 1.34 5.98 1 7 C-0.32 5.68 -1.64 4.36 -3 3 C-2.01 3 -1.02 3 0 3 C0 2.01 0 1.02 0 0 Z " fill="#C3A17F" transform="translate(355,450)"/>
<path d="M0 0 C0.33 0 0.66 0 1 0 C1.33 2.64 1.66 5.28 2 8 C1.01 8 0.02 8 -1 8 C-2 6 -2 6 -1.0625 2.875 C-0.5365625 1.451875 -0.5365625 1.451875 0 0 Z " fill="#D4CCBA" transform="translate(844,444)"/>
<path d="M0 0 C-0.33 0.99 -0.66 1.98 -1 3 C-4.0625 4.1875 -4.0625 4.1875 -7 5 C-7 3 -7 3 -5.75 1.375 C-4 0 -4 0 0 0 Z " fill="#544434" transform="translate(357,449)"/>
<path d="M0 0 C2.97 0.495 2.97 0.495 6 1 C5.67 2.32 5.34 3.64 5 5 C3.0625 4.1875 3.0625 4.1875 1 3 C0.67 2.01 0.34 1.02 0 0 Z " fill="#2F3130" transform="translate(771,443)"/>
<path d="M0 0 C1.65 0 3.3 0 5 0 C5 1.65 5 3.3 5 5 C4.01 5.495 4.01 5.495 3 6 C3 5.01 3 4.02 3 3 C2.01 3 1.02 3 0 3 C0 2.01 0 1.02 0 0 Z " fill="#F2EDDB" transform="translate(754,429)"/>
<path d="M0 0 C2.99332739 0.9977758 3.94766315 1.7522025 6 4 C3 5 3 5 -0.1875 3.5625 C-1.115625 3.046875 -2.04375 2.53125 -3 2 C-2.01 1.34 -1.02 0.68 0 0 Z " fill="#3C3C36" transform="translate(711,427)"/>
<path d="M0 0 C1.32 0.66 2.64 1.32 4 2 C3.38125 2.0825 2.7625 2.165 2.125 2.25 C-0.18437567 2.81258459 -0.18437567 2.81258459 -1.25 5.0625 C-1.4975 5.701875 -1.745 6.34125 -2 7 C-2.66 6.34 -3.32 5.68 -4 5 C-3.01 4.67 -2.02 4.34 -1 4 C-0.26676204 1.98491642 -0.26676204 1.98491642 0 0 Z " fill="#353730" transform="translate(1077,393)"/>
<path d="M0 0 C0.99 0 1.98 0 3 0 C3 0.66 3 1.32 3 2 C3.66 2 4.32 2 5 2 C5.33 1.34 5.66 0.68 6 0 C5.67 1.32 5.34 2.64 5 4 C4.01 3.67 3.02 3.34 2 3 C1.67 3.66 1.34 4.32 1 5 C0.67 3.35 0.34 1.7 0 0 Z " fill="#F9EDD1" transform="translate(552,549)"/>
<path d="M0 0 C0.66 0.33 1.32 0.66 2 1 C1.67 2.65 1.34 4.3 1 6 C-0.32 6 -1.64 6 -3 6 C-2.42655063 3.13275314 -2.1385485 2.1385485 0 0 Z " fill="#C2BFB6" transform="translate(548,538)"/>
<path d="M0 0 C0.33 0.99 0.66 1.98 1 3 C0.01 3.66 -0.98 4.32 -2 5 C-2.99 3.68 -3.98 2.36 -5 1 C-3 0 -3 0 0 0 Z " fill="#E0DBC3" transform="translate(894,485)"/>
<path d="M0 0 C1.98 0 3.96 0 6 0 C5.67 1.65 5.34 3.3 5 5 C3.0625 4.1875 3.0625 4.1875 1 3 C0.67 2.01 0.34 1.02 0 0 Z " fill="#F8EED7" transform="translate(904,482)"/>
<path d="M0 0 C2.31 0.33 4.62 0.66 7 1 C6.67 1.99 6.34 2.98 6 4 C1.125 2.25 1.125 2.25 0 0 Z " fill="#434138" transform="translate(1015,483)"/>
<path d="M0 0 C1.32 0 2.64 0 4 0 C3.38722388 2.96175123 2.74627478 4.38058783 1 7 C0.67 4.69 0.34 2.38 0 0 Z " fill="#3C4238" transform="translate(932,468)"/>
<path d="M0 0 C0.99 0.33 1.98 0.66 3 1 C1.35 2.65 -0.3 4.3 -2 6 C-2.33 5.01 -2.66 4.02 -3 3 C-2.01 2.01 -1.02 1.02 0 0 Z " fill="#32342D" transform="translate(938,464)"/>
<path d="M0 0 C0.99 0.33 1.98 0.66 3 1 C2.67 2.65 2.34 4.3 2 6 C1.01 6.33 0.02 6.66 -1 7 C-0.67 4.69 -0.34 2.38 0 0 Z " fill="#20241D" transform="translate(842,440)"/>
<path d="M0 0 C0.66 0 1.32 0 2 0 C2.66 2.31 3.32 4.62 4 7 C3.01 7 2.02 7 1 7 C0.67 4.69 0.34 2.38 0 0 Z " fill="#DAD4C1" transform="translate(812,435)"/>
<path d="M0 0 C0.66 0.66 1.32 1.32 2 2 C1.625 5.125 1.625 5.125 1 8 C0.01 8 -0.98 8 -2 8 C-1.34 5.36 -0.68 2.72 0 0 Z " fill="#DAD5C5" transform="translate(879,428)"/>
<path d="M0 0 C2.97 0.495 2.97 0.495 6 1 C4.75 2.5625 4.75 2.5625 3 4 C0.8125 3.6875 0.8125 3.6875 -1 3 C-0.67 2.01 -0.34 1.02 0 0 Z " fill="#FBF0DB" transform="translate(772,428)"/>
<path d="M0 0 C1.65 0 3.3 0 5 0 C4.67 1.65 4.34 3.3 4 5 C2 3.625 2 3.625 0 2 C0 1.34 0 0.68 0 0 Z " fill="#353733" transform="translate(551,412)"/>
<path d="M0 0 C-0.33 0.99 -0.66 1.98 -1 3 C-2.32 3 -3.64 3 -5 3 C-5 2.34 -5 1.68 -5 1 C-5.99 0.67 -6.98 0.34 -8 0 C-5.13822943 -1.43088528 -3.06624227 -0.59991697 0 0 Z " fill="#303436" transform="translate(674,390)"/>
</svg>
